<svg width="1224" height="86" viewBox="0 0 1224 86" fill="none" xmlns="http://www.w3.org/2000/svg">
<g clip-path="url(#clip0_2396_62760)">
<rect x="239" y="0.263916" width="85" height="85" rx="42.5" fill="#FFECB3"/>
<path d="M68 51.0839C68.88 50.7239 69.6867 50.3039 70.42 49.8239C71.1533 49.3572 71.7267 48.8906 72.14 48.4239C72.5667 47.9572 72.78 47.5572 72.78 47.2239C72.78 46.6772 72.4267 45.1906 71.72 42.7639L71.62 42.3639L73.86 41.4839C74.18 42.4039 74.4333 43.3906 74.62 44.4439C74.8067 45.4839 74.9 46.4106 74.9 47.2239C74.9 48.5306 74.3867 49.7372 73.36 50.8439C72.3333 51.9639 70.9533 52.8839 69.22 53.6039L68 51.0839ZM76.9948 47.6439C77.1282 46.7639 77.1948 45.4039 77.1948 43.5639C77.1948 41.7239 77.1348 39.7972 77.0148 37.7839C76.9082 35.7572 76.7815 34.3372 76.6348 33.5239L79.1348 32.9439C79.2548 33.7172 79.3615 35.0706 79.4548 37.0039C79.5482 38.9372 79.5948 40.8372 79.5948 42.7039C79.5948 45.0106 79.5148 46.7439 79.3548 47.9039L76.9948 47.6439ZM87.4763 36.9239L90.2163 43.4039C90.4296 43.9372 90.6763 44.3039 90.9563 44.5039C91.2363 44.6906 91.6363 44.7839 92.1563 44.7839H92.3963L92.5563 46.2839L92.3963 47.7639H92.1563C91.2496 47.7639 90.4896 47.5106 89.8763 47.0039C89.2763 46.4972 88.7429 45.6972 88.2763 44.6039L85.4163 38.0439L87.4763 36.9239ZM82.2163 44.1639C82.6429 44.3906 83.1096 44.5972 83.6163 44.7839C84.1229 44.9572 84.7229 45.0439 85.4163 45.0439C86.2829 45.0439 86.9829 44.9172 87.5163 44.6639C88.0496 44.3972 88.4629 44.1172 88.7563 43.8239L90.0963 45.5639C89.7896 45.9506 89.4896 46.2906 89.1963 46.5839C88.9163 46.8639 88.4763 47.1506 87.8763 47.4439C87.2763 47.7239 86.5563 47.8639 85.7163 47.8639C84.0896 47.8639 82.5629 47.3306 81.1363 46.2639L82.2163 44.1639ZM84.7563 33.7239L86.6163 31.8839L88.4563 33.7239L87.8363 34.3439C87.4363 34.7572 87.0296 35.1639 86.6163 35.5639L84.7563 33.7239ZM92.1969 44.7839H92.8769C94.0102 44.7839 94.9435 44.6972 95.6769 44.5239C96.4102 44.3506 96.9035 44.1172 97.1569 43.8239C96.9702 42.5839 95.5835 40.9439 92.9969 38.9039L93.2569 36.3039L100.697 33.1639L101.497 35.5439L95.7169 38.0039C96.5702 38.7372 97.3902 39.6306 98.1769 40.6839C98.9635 41.7372 99.3569 42.7839 99.3569 43.8239C99.3569 44.0506 99.3235 44.2972 99.2569 44.5639C98.9902 45.6439 98.2902 46.4506 97.1569 46.9839C96.0235 47.5039 94.5969 47.7639 92.8769 47.7639H92.1969V44.7839ZM93.4769 33.8839L99.9769 31.2239L100.317 32.1839L93.3569 35.1039L93.4769 33.8839ZM112.713 36.8439C113.019 39.6972 113.233 41.5772 113.353 42.4839C113.433 43.1506 113.526 43.6439 113.633 43.9639C113.753 44.2839 113.919 44.5039 114.133 44.6239C114.359 44.7306 114.686 44.7839 115.113 44.7839H115.453L115.613 46.2839L115.453 47.7639H115.113C113.926 47.7639 113.013 47.3906 112.373 46.6439C111.746 45.8839 111.326 44.6306 111.113 42.8839L110.973 41.8239L110.393 37.3439L112.713 36.8439ZM112.413 46.3839C111.559 46.6639 110.726 46.8039 109.913 46.8039C108.713 46.8039 107.726 46.5172 106.953 45.9439C106.193 45.3572 105.813 44.5639 105.813 43.5639C105.813 42.3372 106.293 41.3039 107.253 40.4639C108.226 39.6239 109.513 38.9106 111.113 38.3239L111.673 40.9239C110.779 41.1372 109.953 41.4506 109.193 41.8639C108.446 42.2639 108.053 42.6439 108.013 43.0039C107.986 43.2972 108.133 43.5439 108.453 43.7439C108.773 43.9306 109.213 44.0239 109.773 44.0239C110.426 44.0239 111.113 43.8772 111.833 43.5839L112.413 46.3839ZM115.224 44.7839H116.184C117.504 44.7839 118.438 44.6706 118.984 44.4439C119.531 44.2172 119.804 43.8706 119.804 43.4039C119.791 43.1106 119.638 42.5506 119.344 41.7239C119.051 40.8839 118.838 40.3239 118.704 40.0439L120.824 38.8839C121.091 39.4439 121.358 40.1906 121.624 41.1239C121.891 42.0439 122.024 42.8506 122.024 43.5439C122.011 44.9039 121.551 45.9506 120.644 46.6839C119.738 47.4039 118.398 47.7639 116.624 47.7639H115.224V44.7839ZM115.444 49.4639L117.104 51.1439C116.744 51.5172 116.378 51.8839 116.004 52.2439L115.444 52.8039L114.624 51.9639L113.784 51.1439L115.444 49.4639ZM118.944 49.4639L120.604 51.1439C120.244 51.5172 119.878 51.8839 119.504 52.2439L118.944 52.8039L118.124 51.9639L117.284 51.1439L118.944 49.4639ZM126.244 32.9639C126.377 33.9372 126.484 35.2572 126.564 36.9239C126.644 38.5772 126.684 40.1106 126.684 41.5239V42.2839C126.67 42.9639 126.704 43.4772 126.784 43.8239C126.864 44.1706 127.024 44.4172 127.264 44.5639C127.517 44.7106 127.904 44.7839 128.424 44.7839H128.524L128.684 46.2839L128.524 47.7639H128.424C126.957 47.7639 125.897 47.3439 125.244 46.5039C124.604 45.6639 124.284 44.3839 124.284 42.6639C124.27 41.0239 124.217 39.3639 124.124 37.6839C124.044 35.9906 123.924 34.5972 123.764 33.5039L126.244 32.9639ZM132.39 43.3239C133.216 43.8839 133.963 44.3306 134.63 44.6639C135.31 44.9839 135.816 45.1439 136.15 45.1439C136.27 45.1439 136.356 45.1239 136.41 45.0839C136.543 44.9906 136.643 44.8572 136.71 44.6839C136.79 44.4972 136.83 44.2839 136.83 44.0439C136.83 43.5106 136.683 43.0172 136.39 42.5639C136.096 42.0972 135.71 41.8639 135.23 41.8639C134.483 41.8639 133.65 42.9239 132.73 45.0439C132.33 45.9506 131.783 46.6306 131.09 47.0839C130.396 47.5372 129.603 47.7639 128.71 47.7639H128.33L128.39 44.7839H128.75C129.79 44.7839 130.643 44.1572 131.31 42.9039C131.976 41.6639 132.616 40.7372 133.23 40.1239C133.843 39.4972 134.53 39.1839 135.29 39.1839C136.01 39.1839 136.643 39.4172 137.19 39.8839C137.736 40.3372 138.15 40.9306 138.43 41.6639C138.723 42.3839 138.87 43.1439 138.87 43.9439C138.87 44.7172 138.723 45.4372 138.43 46.1039C138.136 46.7572 137.71 47.2506 137.15 47.5839C136.856 47.7706 136.496 47.8639 136.07 47.8639C134.896 47.8639 133.296 47.1706 131.27 45.7839L132.39 43.3239ZM145.962 47.7639C145.056 47.7639 144.322 47.4306 143.762 46.7639C143.202 46.0972 142.736 45.1639 142.362 43.9639L144.162 42.8639C144.349 43.5706 144.576 44.0706 144.842 44.3639C145.109 44.6439 145.482 44.7839 145.962 44.7839H146.142L146.302 46.2839L146.142 47.7639H145.962ZM137.902 51.0839C138.782 50.7239 139.589 50.3039 140.322 49.8239C141.056 49.3572 141.629 48.8906 142.042 48.4239C142.469 47.9572 142.682 47.5572 142.682 47.2239C142.682 46.6772 142.329 45.1906 141.622 42.7639L141.522 42.3639L143.762 41.4839C144.082 42.4039 144.336 43.3906 144.522 44.4439C144.709 45.4839 144.802 46.4106 144.802 47.2239C144.802 48.5306 144.289 49.7372 143.262 50.8439C142.236 51.9639 140.856 52.8839 139.122 53.6039L137.902 51.0839ZM157.166 44.7839C157.553 44.7839 157.86 44.6706 158.086 44.4439C158.313 44.2172 158.426 43.9239 158.426 43.5639C158.426 43.2039 158.286 42.6306 158.006 41.8439C157.74 41.0572 157.513 40.4572 157.326 40.0439L159.366 38.9239C159.62 39.4439 159.886 40.1906 160.166 41.1639C160.446 42.1239 160.586 42.9639 160.586 43.6839C160.586 44.4306 160.44 45.1172 160.146 45.7439C159.853 46.3572 159.446 46.8506 158.926 47.2239C158.406 47.5839 157.82 47.7639 157.166 47.7639H157.106V44.7839H157.166ZM151.746 47.7639V44.7839H151.846C152.526 44.7839 153.053 44.4172 153.426 43.6839C153.68 43.1772 153.906 42.3972 154.106 41.3439L156.166 41.4439C156.02 42.3239 155.946 42.9506 155.946 43.3239C155.946 44.2972 156.353 44.7839 157.166 44.7839H157.206L157.366 46.2839L157.206 47.7639H157.166C156.446 47.7639 155.84 47.5706 155.346 47.1839C154.853 46.7972 154.506 46.2506 154.306 45.5439L154.806 45.5039C153.993 47.0106 152.986 47.7639 151.786 47.7639H151.746ZM146.026 47.7639L145.866 46.2839L146.026 44.7839H146.126C146.54 44.7839 146.946 44.6972 147.346 44.5239C147.746 44.3372 148.046 44.1106 148.246 43.8439C148.526 43.5239 148.74 43.1639 148.886 42.7639C149.033 42.3639 149.166 41.9372 149.286 41.4839L151.366 41.7039C151.353 41.7706 151.28 42.0372 151.146 42.5039C151.013 42.9572 150.946 43.3706 150.946 43.7439C150.946 44.4372 151.226 44.7839 151.786 44.7839H151.826L151.986 46.2839L151.826 47.7639H151.726C151.153 47.7639 150.653 47.6106 150.226 47.3039C149.8 46.9972 149.5 46.5906 149.326 46.0839C148.9 46.6306 148.406 47.0506 147.846 47.3439C147.3 47.6239 146.713 47.7639 146.086 47.7639H146.026Z" fill="#0F0F0F"/>
<path d="M192.52 36.8239H200.968V41.0479H192.52V50.6399H187.988V41.0479H179.54V36.8239H187.988V27.8479H192.52V36.8239ZM211.069 27.2759C211.949 30.6199 213.342 33.0252 215.249 34.4919C217.185 35.9586 219.385 36.6919 221.849 36.6919C223.228 36.6919 224.621 36.5012 226.029 36.1199C227.437 35.7092 228.713 35.1812 229.857 34.5359L231.001 38.8919C228.42 40.3292 225.897 41.0479 223.433 41.0479C221.585 41.0479 219.928 40.6519 218.461 39.8599C216.994 39.0386 215.836 38.0119 214.985 36.7799C214.164 35.5186 213.709 34.2279 213.621 32.9079C213.504 31.2066 213.826 29.5932 214.589 28.0679C215.381 26.5132 216.496 25.2666 217.933 24.3279C219.37 23.3892 220.969 22.9199 222.729 22.9199C224.078 22.9199 225.354 23.2132 226.557 23.7999C227.789 24.3572 229.006 25.1199 230.209 26.0879L228.449 29.5639C227.628 29.0946 226.733 28.7132 225.765 28.4199C224.797 28.0972 223.844 27.9359 222.905 27.9359C221.38 27.9359 220.089 28.3612 219.033 29.2119C218.006 30.0332 217.493 31.0452 217.493 32.2479C217.493 33.4506 217.948 34.4626 218.857 35.2839C219.796 36.0759 221.101 36.4719 222.773 36.4719C224.826 36.4719 227.188 35.8266 229.857 34.5359L231.001 38.8919C229.798 39.5959 228.42 40.1679 226.865 40.6079C225.31 41.0479 223.726 41.2679 222.113 41.2679C219.004 41.2679 216.158 40.3586 213.577 38.5399C211.025 36.6919 209.118 33.6999 207.857 29.5639L211.069 27.2759ZM209.309 53.7639C209.338 53.1772 209.353 52.2532 209.353 50.9919C209.353 45.9759 209.104 41.5172 208.605 37.6159C207.96 32.8639 206.86 28.7132 205.305 25.1639L209.441 22.7439C211.054 26.1466 212.213 30.8986 212.917 36.9999C213.328 40.6959 213.533 45.2426 213.533 50.6399L213.489 53.7639H209.309ZM248.163 54.8199C247.429 53.1479 246.799 50.5519 246.271 47.0319C245.772 43.4826 245.435 39.9186 245.259 36.3399C245.171 34.1692 244.789 32.1452 244.115 30.2679C243.469 28.3612 242.443 27.4079 241.035 27.4079C240.067 27.4079 239.201 27.9359 238.439 28.9919C237.705 30.0186 237.339 31.1919 237.339 32.5119C237.339 33.4506 237.676 34.1986 238.351 34.7559C239.055 35.3132 240.067 35.5919 241.387 35.5919C242.413 35.5919 243.279 35.4746 243.983 35.2399C244.716 35.0052 245.229 34.7999 245.523 34.6239C245.816 34.4186 246.197 34.1252 246.667 33.7439L248.295 38.4519C247.473 39.0386 246.461 39.5372 245.259 39.9479C244.056 40.3292 242.707 40.5199 241.211 40.5199C238.864 40.5199 236.987 39.8452 235.579 38.4959C234.171 37.1172 233.467 35.1959 233.467 32.7319C233.467 31.2066 233.804 29.6812 234.479 28.1559C235.153 26.6012 236.063 25.3252 237.207 24.3279C238.38 23.3012 239.685 22.7879 241.123 22.7879C243.205 22.7879 244.804 23.5506 245.919 25.0759C247.063 26.6012 247.825 28.2146 248.207 29.9159C248.588 31.6172 248.911 33.6412 249.175 35.9879C250.084 44.1719 251.111 49.6279 252.255 52.3559L248.163 54.8199ZM255.811 52.8399C257.541 47.7652 260.225 43.4679 263.863 39.9479C267.529 36.4279 271.46 33.8466 275.655 32.2039L276.491 37.1319C273.088 38.4519 269.817 40.6226 266.679 43.6439C263.54 46.6652 261.164 50.3172 259.551 54.5999L255.811 52.8399ZM272.707 38.7599C270.448 39.9039 268.351 40.4759 266.415 40.4759C264.743 40.4759 263.276 40.0946 262.015 39.3319C260.753 38.5692 259.771 37.5719 259.067 36.3399C258.392 35.0786 258.055 33.7292 258.055 32.2919C258.055 30.9132 258.377 29.5492 259.023 28.1999C259.697 26.8212 260.68 25.6479 261.971 24.6799C263.261 23.6826 264.801 23.0666 266.591 22.8319C266.796 22.8026 267.119 22.7879 267.559 22.7879C268.791 22.7879 269.979 23.0226 271.123 23.4919C272.296 23.9319 273.235 24.4306 273.939 24.9879L272.223 28.4639C271.049 27.8186 269.715 27.4959 268.219 27.4959C267.72 27.4959 267.339 27.5106 267.075 27.5399C265.579 27.7159 264.376 28.2732 263.467 29.2119C262.557 30.1212 262.103 31.1479 262.103 32.2919C262.132 33.1719 262.557 33.9199 263.379 34.5359C264.2 35.1519 265.271 35.4599 266.591 35.4599C268.263 35.4599 269.993 34.9906 271.783 34.0519L272.707 38.7599Z" fill="#0F0F0F"/>
</g>
<g clip-path="url(#clip1_2396_62760)">
<rect x="696.5" y="0.263916" width="85" height="85" rx="42.5" fill="#FFECB3"/>
<path d="M446.64 42.3639C446.28 43.1772 446.007 43.8839 445.82 44.4839C445.647 45.0706 445.56 45.6706 445.56 46.2839C445.56 47.3906 445.9 48.2172 446.58 48.7639C447.273 49.3106 448.28 49.5839 449.6 49.5839C450.68 49.5839 451.647 49.3906 452.5 49.0039C453.353 48.6306 453.967 48.1572 454.34 47.5839C454.353 47.5439 453.933 47.4172 453.08 47.2039L452.02 46.9039C450.967 46.5972 450.22 46.2306 449.78 45.8039C449.34 45.3772 449.12 44.7772 449.12 44.0039C449.12 42.9239 449.393 41.8906 449.94 40.9039C450.487 39.9172 451.207 39.1172 452.1 38.5039C452.993 37.8906 453.94 37.5839 454.94 37.5839C455.34 37.5839 455.747 37.6439 456.16 37.7639C456.573 37.8706 456.86 38.0039 457.02 38.1639L456.18 40.7439C456.047 40.6906 455.853 40.6439 455.6 40.6039C455.347 40.5639 455.12 40.5439 454.92 40.5439C454.373 40.5439 453.847 40.6639 453.34 40.9039C452.847 41.1306 452.427 41.4372 452.08 41.8239C451.733 42.1972 451.5 42.6039 451.38 43.0439C451.367 43.0972 451.36 43.1639 451.36 43.2439C451.36 43.4706 451.513 43.6706 451.82 43.8439C452.14 44.0039 452.733 44.1839 453.6 44.3839C454.813 44.6639 455.633 45.0172 456.06 45.4439C456.5 45.8572 456.72 46.3439 456.72 46.9039C456.72 47.8772 456.407 48.7972 455.78 49.6639C455.153 50.5306 454.293 51.2239 453.2 51.7439C452.12 52.2772 450.92 52.5439 449.6 52.5439C448.333 52.5439 447.213 52.2972 446.24 51.8039C445.267 51.3106 444.513 50.5772 443.98 49.6039C443.46 48.6439 443.247 47.4906 443.34 46.1439C443.42 44.8639 443.873 43.3106 444.7 41.4839L446.64 42.3639ZM457.656 51.0839C458.536 50.7239 459.343 50.3039 460.076 49.8239C460.81 49.3572 461.383 48.8906 461.796 48.4239C462.223 47.9572 462.436 47.5572 462.436 47.2239C462.436 46.6772 462.083 45.1906 461.376 42.7639L461.276 42.3639L463.516 41.4839C463.836 42.4039 464.09 43.3906 464.276 44.4439C464.463 45.4839 464.556 46.4106 464.556 47.2239C464.556 48.5306 464.043 49.7372 463.016 50.8439C461.99 51.9639 460.61 52.8839 458.876 53.6039L457.656 51.0839ZM466.651 47.6439C466.784 46.7639 466.851 45.4039 466.851 43.5639C466.851 41.7239 466.791 39.7972 466.671 37.7839C466.564 35.7572 466.438 34.3372 466.291 33.5239L468.791 32.9439C468.911 33.7172 469.018 35.0706 469.111 37.0039C469.204 38.9372 469.251 40.8372 469.251 42.7039C469.251 45.0106 469.171 46.7439 469.011 47.9039L466.651 47.6439ZM477.133 36.9239L479.873 43.4039C480.086 43.9372 480.333 44.3039 480.613 44.5039C480.893 44.6906 481.293 44.7839 481.813 44.7839H482.053L482.213 46.2839L482.053 47.7639H481.813C480.906 47.7639 480.146 47.5106 479.533 47.0039C478.933 46.4972 478.399 45.6972 477.933 44.6039L475.073 38.0439L477.133 36.9239ZM471.873 44.1639C472.299 44.3906 472.766 44.5972 473.273 44.7839C473.779 44.9572 474.379 45.0439 475.073 45.0439C475.939 45.0439 476.639 44.9172 477.173 44.6639C477.706 44.3972 478.119 44.1172 478.413 43.8239L479.753 45.5639C479.446 45.9506 479.146 46.2906 478.853 46.5839C478.573 46.8639 478.133 47.1506 477.533 47.4439C476.933 47.7239 476.213 47.8639 475.373 47.8639C473.746 47.8639 472.219 47.3306 470.793 46.2639L471.873 44.1639ZM474.413 33.7239L476.273 31.8839L478.113 33.7239L477.493 34.3439C477.093 34.7572 476.686 35.1639 476.273 35.5639L474.413 33.7239ZM481.853 44.7839H482.533C483.666 44.7839 484.6 44.6972 485.333 44.5239C486.066 44.3506 486.56 44.1172 486.813 43.8239C486.626 42.5839 485.24 40.9439 482.653 38.9039L482.913 36.3039L490.353 33.1639L491.153 35.5439L485.373 38.0039C486.226 38.7372 487.046 39.6306 487.833 40.6839C488.62 41.7372 489.013 42.7839 489.013 43.8239C489.013 44.0506 488.98 44.2972 488.913 44.5639C488.646 45.6439 487.946 46.4506 486.813 46.9839C485.68 47.5039 484.253 47.7639 482.533 47.7639H481.853V44.7839ZM483.133 33.8839L489.633 31.2239L489.973 32.1839L483.013 35.1039L483.133 33.8839ZM502.369 36.8439C502.676 39.6972 502.889 41.5772 503.009 42.4839C503.089 43.1506 503.182 43.6439 503.289 43.9639C503.409 44.2839 503.576 44.5039 503.789 44.6239C504.016 44.7306 504.342 44.7839 504.769 44.7839H505.109L505.269 46.2839L505.109 47.7639H504.769C503.582 47.7639 502.669 47.3906 502.029 46.6439C501.402 45.8839 500.982 44.6306 500.769 42.8839L500.629 41.8239L500.049 37.3439L502.369 36.8439ZM502.069 46.3839C501.216 46.6639 500.382 46.8039 499.569 46.8039C498.369 46.8039 497.382 46.5172 496.609 45.9439C495.849 45.3572 495.469 44.5639 495.469 43.5639C495.469 42.3372 495.949 41.3039 496.909 40.4639C497.882 39.6239 499.169 38.9106 500.769 38.3239L501.329 40.9239C500.436 41.1372 499.609 41.4506 498.849 41.8639C498.102 42.2639 497.709 42.6439 497.669 43.0039C497.642 43.2972 497.789 43.5439 498.109 43.7439C498.429 43.9306 498.869 44.0239 499.429 44.0239C500.082 44.0239 500.769 43.8772 501.489 43.5839L502.069 46.3839ZM504.88 44.7839H505.84C507.16 44.7839 508.094 44.6706 508.64 44.4439C509.187 44.2172 509.46 43.8706 509.46 43.4039C509.447 43.1106 509.294 42.5506 509 41.7239C508.707 40.8839 508.494 40.3239 508.36 40.0439L510.48 38.8839C510.747 39.4439 511.014 40.1906 511.28 41.1239C511.547 42.0439 511.68 42.8506 511.68 43.5439C511.667 44.9039 511.207 45.9506 510.3 46.6839C509.394 47.4039 508.054 47.7639 506.28 47.7639H504.88V44.7839ZM505.1 49.4639L506.76 51.1439C506.4 51.5172 506.034 51.8839 505.66 52.2439L505.1 52.8039L504.28 51.9639L503.44 51.1439L505.1 49.4639ZM508.6 49.4639L510.26 51.1439C509.9 51.5172 509.534 51.8839 509.16 52.2439L508.6 52.8039L507.78 51.9639L506.94 51.1439L508.6 49.4639ZM515.9 32.9639C516.033 33.9372 516.14 35.2572 516.22 36.9239C516.3 38.5772 516.34 40.1106 516.34 41.5239V42.2839C516.327 42.9639 516.36 43.4772 516.44 43.8239C516.52 44.1706 516.68 44.4172 516.92 44.5639C517.173 44.7106 517.56 44.7839 518.08 44.7839H518.18L518.34 46.2839L518.18 47.7639H518.08C516.613 47.7639 515.553 47.3439 514.9 46.5039C514.26 45.6639 513.94 44.3839 513.94 42.6639C513.927 41.0239 513.873 39.3639 513.78 37.6839C513.7 35.9906 513.58 34.5972 513.42 33.5039L515.9 32.9639ZM522.046 43.3239C522.873 43.8839 523.619 44.3306 524.286 44.6639C524.966 44.9839 525.473 45.1439 525.806 45.1439C525.926 45.1439 526.013 45.1239 526.066 45.0839C526.199 44.9906 526.299 44.8572 526.366 44.6839C526.446 44.4972 526.486 44.2839 526.486 44.0439C526.486 43.5106 526.339 43.0172 526.046 42.5639C525.753 42.0972 525.366 41.8639 524.886 41.8639C524.139 41.8639 523.306 42.9239 522.386 45.0439C521.986 45.9506 521.439 46.6306 520.746 47.0839C520.053 47.5372 519.259 47.7639 518.366 47.7639H517.986L518.046 44.7839H518.406C519.446 44.7839 520.299 44.1572 520.966 42.9039C521.633 41.6639 522.273 40.7372 522.886 40.1239C523.499 39.4972 524.186 39.1839 524.946 39.1839C525.666 39.1839 526.299 39.4172 526.846 39.8839C527.393 40.3372 527.806 40.9306 528.086 41.6639C528.379 42.3839 528.526 43.1439 528.526 43.9439C528.526 44.7172 528.379 45.4372 528.086 46.1039C527.793 46.7572 527.366 47.2506 526.806 47.5839C526.513 47.7706 526.153 47.8639 525.726 47.8639C524.553 47.8639 522.953 47.1706 520.926 45.7839L522.046 43.3239ZM535.619 47.7639C534.712 47.7639 533.979 47.4306 533.419 46.7639C532.859 46.0972 532.392 45.1639 532.019 43.9639L533.819 42.8639C534.005 43.5706 534.232 44.0706 534.499 44.3639C534.765 44.6439 535.139 44.7839 535.619 44.7839H535.799L535.959 46.2839L535.799 47.7639H535.619ZM527.559 51.0839C528.439 50.7239 529.245 50.3039 529.979 49.8239C530.712 49.3572 531.285 48.8906 531.699 48.4239C532.125 47.9572 532.339 47.5572 532.339 47.2239C532.339 46.6772 531.985 45.1906 531.279 42.7639L531.179 42.3639L533.419 41.4839C533.739 42.4039 533.992 43.3906 534.179 44.4439C534.365 45.4839 534.459 46.4106 534.459 47.2239C534.459 48.5306 533.945 49.7372 532.919 50.8439C531.892 51.9639 530.512 52.8839 528.779 53.6039L527.559 51.0839ZM546.823 44.7839C547.209 44.7839 547.516 44.6706 547.743 44.4439C547.969 44.2172 548.083 43.9239 548.083 43.5639C548.083 43.2039 547.943 42.6306 547.663 41.8439C547.396 41.0572 547.169 40.4572 546.983 40.0439L549.023 38.9239C549.276 39.4439 549.543 40.1906 549.823 41.1639C550.103 42.1239 550.243 42.9639 550.243 43.6839C550.243 44.4306 550.096 45.1172 549.803 45.7439C549.509 46.3572 549.103 46.8506 548.583 47.2239C548.063 47.5839 547.476 47.7639 546.823 47.7639H546.763V44.7839H546.823ZM541.403 47.7639V44.7839H541.503C542.183 44.7839 542.709 44.4172 543.083 43.6839C543.336 43.1772 543.563 42.3972 543.763 41.3439L545.823 41.4439C545.676 42.3239 545.603 42.9506 545.603 43.3239C545.603 44.2972 546.009 44.7839 546.823 44.7839H546.863L547.023 46.2839L546.863 47.7639H546.823C546.103 47.7639 545.496 47.5706 545.003 47.1839C544.509 46.7972 544.163 46.2506 543.963 45.5439L544.463 45.5039C543.649 47.0106 542.643 47.7639 541.443 47.7639H541.403ZM535.683 47.7639L535.523 46.2839L535.683 44.7839H535.783C536.196 44.7839 536.603 44.6972 537.003 44.5239C537.403 44.3372 537.703 44.1106 537.903 43.8439C538.183 43.5239 538.396 43.1639 538.543 42.7639C538.689 42.3639 538.823 41.9372 538.943 41.4839L541.023 41.7039C541.009 41.7706 540.936 42.0372 540.803 42.5039C540.669 42.9572 540.603 43.3706 540.603 43.7439C540.603 44.4372 540.883 44.7839 541.443 44.7839H541.483L541.643 46.2839L541.483 47.7639H541.383C540.809 47.7639 540.309 47.6106 539.883 47.3039C539.456 46.9972 539.156 46.5906 538.983 46.0839C538.556 46.6306 538.063 47.0506 537.503 47.3439C536.956 47.6239 536.369 47.7639 535.743 47.7639H535.683ZM559.609 42.4839C559.263 43.2839 558.996 43.9906 558.809 44.6039C558.623 45.2039 558.529 45.8172 558.529 46.4439C558.529 47.5372 558.876 48.3506 559.569 48.8839C560.263 49.4306 561.263 49.7039 562.569 49.7039C563.503 49.7039 564.316 49.5372 565.009 49.2039C565.716 48.8839 566.249 48.4572 566.609 47.9239C566.983 47.4039 567.169 46.8506 567.169 46.2639C567.169 45.5039 566.743 43.9039 565.889 41.4639L568.029 40.3439C568.869 42.5972 569.289 44.5706 569.289 46.2639C569.289 47.4239 569.009 48.4906 568.449 49.4639C567.889 50.4372 567.096 51.2106 566.069 51.7839C565.056 52.3706 563.889 52.6639 562.569 52.6639C561.329 52.6639 560.236 52.4239 559.289 51.9439C558.343 51.4772 557.603 50.8039 557.069 49.9239C556.549 49.0439 556.289 48.0106 556.289 46.8239C556.289 46.5839 556.296 46.3972 556.309 46.2639C556.349 45.5039 556.503 44.7106 556.769 43.8839C557.049 43.0572 557.356 42.2972 557.689 41.6039L559.609 42.4839ZM561.109 40.3839L562.969 38.5439L564.809 40.3839L564.189 41.0039C563.789 41.4172 563.383 41.8239 562.969 42.2239L561.109 40.3839ZM573.263 32.9639C573.397 33.9372 573.503 35.2572 573.583 36.9239C573.663 38.5772 573.703 40.1106 573.703 41.5239V42.2839C573.69 42.9639 573.723 43.4772 573.803 43.8239C573.883 44.1706 574.043 44.4172 574.283 44.5639C574.537 44.7106 574.923 44.7839 575.443 44.7839H575.543L575.703 46.2839L575.543 47.7639H575.443C573.977 47.7639 572.917 47.3439 572.263 46.5039C571.623 45.6639 571.303 44.3839 571.303 42.6639C571.29 41.0239 571.237 39.3639 571.143 37.6839C571.063 35.9906 570.943 34.5972 570.783 33.5039L573.263 32.9639ZM579.409 43.3239C580.236 43.8839 580.983 44.3306 581.649 44.6639C582.329 44.9839 582.836 45.1439 583.169 45.1439C583.289 45.1439 583.376 45.1239 583.429 45.0839C583.563 44.9906 583.663 44.8572 583.729 44.6839C583.809 44.4972 583.849 44.2839 583.849 44.0439C583.849 43.5106 583.703 43.0172 583.409 42.5639C583.116 42.0972 582.729 41.8639 582.249 41.8639C581.503 41.8639 580.669 42.9239 579.749 45.0439C579.349 45.9506 578.803 46.6306 578.109 47.0839C577.416 47.5372 576.623 47.7639 575.729 47.7639H575.349L575.409 44.7839H575.769C576.809 44.7839 577.663 44.1572 578.329 42.9039C578.996 41.6639 579.636 40.7372 580.249 40.1239C580.863 39.4972 581.549 39.1839 582.309 39.1839C583.029 39.1839 583.663 39.4172 584.209 39.8839C584.756 40.3372 585.169 40.9306 585.449 41.6639C585.743 42.3839 585.889 43.1439 585.889 43.9439C585.889 44.7172 585.743 45.4372 585.449 46.1039C585.156 46.7572 584.729 47.2506 584.169 47.5839C583.876 47.7706 583.516 47.8639 583.089 47.8639C581.916 47.8639 580.316 47.1706 578.289 45.7839L579.409 43.3239ZM587.34 51.0239C589.62 50.5306 591.273 49.9372 592.3 49.2439C593.326 48.5506 593.84 47.6572 593.84 46.5639C593.84 45.7772 593.726 45.0106 593.5 44.2639C593.286 43.5039 592.986 42.8839 592.6 42.4039C592.226 41.9239 591.806 41.6839 591.34 41.6839C591.073 41.6839 590.82 41.7839 590.58 41.9839C590.353 42.1706 590.173 42.4106 590.04 42.7039C589.906 42.9972 589.84 43.2772 589.84 43.5439C589.84 43.7706 589.886 43.9506 589.98 44.0839C590.193 44.3772 590.68 44.5706 591.44 44.6639C592.213 44.7439 593.273 44.7839 594.62 44.7839H596.6L596.76 46.2839L596.6 47.7639L594.06 47.7839C592.446 47.7839 591.153 47.6506 590.18 47.3839C589.206 47.1172 588.526 46.5772 588.14 45.7639C587.9 45.2439 587.78 44.6706 587.78 44.0439C587.78 43.2572 587.946 42.4772 588.28 41.7039C588.613 40.9172 589.073 40.2772 589.66 39.7839C590.246 39.2772 590.886 39.0239 591.58 39.0239C592.38 39.0239 593.106 39.3706 593.76 40.0639C594.413 40.7572 594.926 41.6639 595.3 42.7839C595.673 43.9039 595.86 45.0706 595.86 46.2839C595.86 48.1506 595.186 49.7239 593.84 51.0039C592.493 52.2839 590.633 53.1506 588.26 53.6039L587.34 51.0239ZM596.345 44.7839H597.305C598.625 44.7839 599.559 44.6706 600.105 44.4439C600.652 44.2172 600.925 43.8706 600.925 43.4039C600.912 43.1106 600.759 42.5506 600.465 41.7239C600.172 40.8839 599.959 40.3239 599.825 40.0439L601.945 38.8839C602.212 39.4439 602.479 40.1906 602.745 41.1239C603.012 42.0439 603.145 42.8506 603.145 43.5439C603.132 44.9039 602.672 45.9506 601.765 46.6839C600.859 47.4039 599.519 47.7639 597.745 47.7639H596.345V44.7839ZM598.205 34.7639L599.865 36.4439C599.505 36.8172 599.139 37.1839 598.765 37.5439L598.205 38.1039L597.385 37.2639L596.545 36.4439L598.205 34.7639ZM601.705 34.7639L603.365 36.4439C603.005 36.8172 602.639 37.1839 602.265 37.5439L601.705 38.1039L600.885 37.2639L600.045 36.4439L601.705 34.7639ZM609.998 44.1639C610.478 44.4039 610.971 44.6106 611.478 44.7839C611.984 44.9572 612.604 45.0439 613.338 45.0439C614.058 45.0306 614.644 44.9506 615.098 44.8039C615.564 44.6439 615.871 44.4706 616.018 44.2839C616.031 44.2572 616.038 44.2039 616.038 44.1239C616.038 43.8439 615.911 43.4772 615.658 43.0239C615.418 42.5572 614.984 42.0106 614.358 41.3839C613.744 40.7439 612.918 40.0706 611.878 39.3639L613.318 36.7439C614.864 37.8372 616.084 39.0306 616.978 40.3239C617.884 41.6172 618.338 42.8506 618.338 44.0239C618.338 44.5839 618.231 45.0972 618.018 45.5639C617.698 46.3106 617.131 46.8839 616.318 47.2839C615.504 47.6706 614.604 47.8639 613.618 47.8639C612.458 47.8639 611.491 47.6906 610.718 47.3439C609.944 46.9839 609.344 46.6239 608.918 46.2639L609.998 44.1639ZM617.266 51.0839C618.146 50.7239 618.952 50.3039 619.686 49.8239C620.419 49.3572 620.992 48.8906 621.406 48.4239C621.832 47.9572 622.046 47.5572 622.046 47.2239C622.046 46.6772 621.692 45.1906 620.986 42.7639L620.886 42.3639L623.126 41.4839C623.446 42.4039 623.699 43.3906 623.886 44.4439C624.072 45.4839 624.166 46.4106 624.166 47.2239C624.166 48.5306 623.652 49.7372 622.626 50.8439C621.599 51.9639 620.219 52.8839 618.486 53.6039L617.266 51.0839ZM628.38 32.9639C628.514 33.9372 628.62 35.2572 628.7 36.9239C628.78 38.5772 628.82 40.1106 628.82 41.5239V42.2839C628.807 42.9639 628.84 43.4772 628.92 43.8239C629 44.1706 629.16 44.4172 629.4 44.5639C629.654 44.7106 630.04 44.7839 630.56 44.7839H630.66L630.82 46.2839L630.66 47.7639H630.56C629.094 47.7639 628.034 47.3439 627.38 46.5039C626.74 45.6639 626.42 44.3839 626.42 42.6639C626.407 41.0239 626.354 39.3639 626.26 37.6839C626.18 35.9906 626.06 34.5972 625.9 33.5039L628.38 32.9639ZM630.466 44.7839H630.606C631.806 44.7839 632.7 44.7239 633.286 44.6039C633.873 44.4706 634.26 44.2772 634.446 44.0239C634.633 43.7706 634.726 43.4039 634.726 42.9239C634.726 42.5372 634.66 41.9039 634.526 41.0239L636.586 40.6239C636.773 41.5972 636.866 42.6972 636.866 43.9239C636.92 44.1506 637.066 44.3506 637.306 44.5239C637.546 44.6972 637.893 44.7839 638.346 44.7839H638.466L638.626 46.2839L638.466 47.7639H638.346C637.733 47.7639 637.166 47.5972 636.646 47.2639C636.126 46.9172 635.72 46.4839 635.426 45.9639L635.926 46.0639C635.566 46.6772 634.98 47.1172 634.166 47.3839C633.366 47.6372 632.18 47.7639 630.606 47.7639H630.466V44.7839ZM630.466 49.4439L632.126 51.1239C631.766 51.4972 631.4 51.8639 631.026 52.2239L630.466 52.7839L629.646 51.9439L628.806 51.1239L630.466 49.4439ZM633.966 49.4439L635.626 51.1239C635.266 51.4972 634.9 51.8639 634.526 52.2239L633.966 52.7839L633.146 51.9439L632.306 51.1239L633.966 49.4439ZM644.499 44.7839L644.659 46.2839L644.499 47.7639H644.299C643.646 47.7639 643.033 47.5572 642.459 47.1439C641.899 46.7306 641.446 46.1706 641.099 45.4639C640.753 44.7572 640.579 43.9772 640.579 43.1239C640.539 42.1772 640.459 40.5839 640.339 38.3439C640.219 36.1039 640.113 34.5039 640.019 33.5439L642.519 32.9839C642.626 34.0639 642.739 36.5106 642.859 40.3239L642.979 43.1439C643.006 43.7306 643.126 44.1506 643.339 44.4039C643.566 44.6572 643.886 44.7839 644.299 44.7839H644.499ZM638.259 44.7839H638.679C639.359 44.7839 639.846 44.6639 640.139 44.4239C640.446 44.1706 640.593 43.7372 640.579 43.1239L642.359 43.3439C642.359 44.6372 642.039 45.6972 641.399 46.5239C640.759 47.3506 639.873 47.7639 638.739 47.7639H638.259V44.7839ZM644.295 44.7839H644.435C645.635 44.7839 646.528 44.7239 647.115 44.6039C647.701 44.4706 648.088 44.2772 648.275 44.0239C648.461 43.7706 648.555 43.4039 648.555 42.9239C648.555 42.5372 648.488 41.9039 648.355 41.0239L650.415 40.6239C650.601 41.5972 650.695 42.6972 650.695 43.9239C650.748 44.1506 650.895 44.3506 651.135 44.5239C651.375 44.6972 651.721 44.7839 652.175 44.7839H652.295L652.455 46.2839L652.295 47.7639H652.175C651.561 47.7639 650.995 47.5972 650.475 47.2639C649.955 46.9172 649.548 46.4839 649.255 45.9639L649.755 46.0639C649.395 46.6772 648.808 47.1172 647.995 47.3839C647.195 47.6372 646.008 47.7639 644.435 47.7639H644.295V44.7839ZM644.295 49.4439L645.955 51.1239C645.595 51.4972 645.228 51.8639 644.855 52.2239L644.295 52.7839L643.475 51.9439L642.635 51.1239L644.295 49.4439ZM647.795 49.4439L649.455 51.1239C649.095 51.4972 648.728 51.8639 648.355 52.2239L647.795 52.7839L646.975 51.9439L646.135 51.1239L647.795 49.4439ZM656.148 43.3239C656.974 43.8839 657.721 44.3306 658.388 44.6639C659.068 44.9839 659.574 45.1439 659.908 45.1439C660.028 45.1439 660.114 45.1239 660.168 45.0839C660.301 44.9906 660.401 44.8572 660.468 44.6839C660.548 44.4972 660.588 44.2839 660.588 44.0439C660.588 43.5106 660.441 43.0172 660.148 42.5639C659.854 42.0972 659.468 41.8639 658.988 41.8639C658.241 41.8639 657.408 42.9239 656.488 45.0439C656.088 45.9506 655.541 46.6306 654.848 47.0839C654.154 47.5372 653.361 47.7639 652.468 47.7639H652.087L652.147 44.7839H652.508C653.548 44.7839 654.401 44.1572 655.068 42.9039C655.734 41.6639 656.374 40.7372 656.988 40.1239C657.601 39.4972 658.288 39.1839 659.048 39.1839C659.768 39.1839 660.401 39.4172 660.948 39.8839C661.494 40.3372 661.908 40.9306 662.188 41.6639C662.481 42.3839 662.628 43.1439 662.628 43.9439C662.628 44.7172 662.481 45.4372 662.188 46.1039C661.894 46.7572 661.468 47.2506 660.908 47.5839C660.614 47.7706 660.254 47.8639 659.828 47.8639C658.654 47.8639 657.054 47.1706 655.028 45.7839L656.148 43.3239Z" fill="#0F0F0F"/>
<path d="M694.02 36.8239H702.468V41.0479H694.02V50.6399H689.488V41.0479H681.04V36.8239H689.488V27.8479H694.02V36.8239ZM710.809 53.7639C710.838 53.1772 710.853 52.2532 710.853 50.9919C710.853 45.9759 710.604 41.5172 710.105 37.6159C709.46 32.8639 708.36 28.7132 706.805 25.1639L710.941 22.7439C712.554 26.1466 713.713 30.8986 714.417 36.9999C714.828 40.6959 715.033 45.2426 715.033 50.6399L714.989 53.7639H710.809ZM726.579 53.7639C726.608 53.1772 726.623 52.2532 726.623 50.9919C726.623 45.9759 726.373 41.5172 725.875 37.6159C725.229 32.8639 724.129 28.7132 722.575 25.1639L726.711 22.7439C728.324 26.1466 729.483 30.8986 730.187 36.9999C730.597 40.6959 730.803 45.2426 730.803 50.6399L730.759 53.7639H726.579Z" fill="#0F0F0F"/>
</g>
<g clip-path="url(#clip2_2396_62760)">
<rect x="1095.5" y="0.263916" width="85" height="85" rx="42.5" fill="#FFECB3"/>
<path d="M887.88 32.9639C888.107 34.6706 888.3 38.9106 888.46 45.6839C888.487 47.1906 888.253 48.4906 887.76 49.5839C887.28 50.6772 886.567 51.5172 885.62 52.1039C884.673 52.6906 883.533 52.9839 882.2 52.9839C881.133 52.9839 880.153 52.7706 879.26 52.3439C878.367 51.9172 877.653 51.2972 877.12 50.4839C876.6 49.6839 876.34 48.7506 876.34 47.6839C876.34 46.9106 876.48 46.0506 876.76 45.1039C877.04 44.1439 877.36 43.2772 877.72 42.5039L879.66 43.3839C879.3 44.1706 879.027 44.8572 878.84 45.4439C878.667 46.0172 878.58 46.6039 878.58 47.2039C878.58 48.0306 878.913 48.7039 879.58 49.2239C880.247 49.7439 881.12 50.0039 882.2 50.0039C883.56 50.0039 884.587 49.6572 885.28 48.9639C885.973 48.2706 886.3 47.2239 886.26 45.8239C886.193 43.5172 886.073 41.2106 885.9 38.9039C885.727 36.5839 885.553 34.7839 885.38 33.5039L887.88 32.9639ZM892.689 32.9639C892.822 33.9372 892.929 35.2572 893.009 36.9239C893.089 38.5772 893.129 40.1106 893.129 41.5239V42.2839C893.116 42.9639 893.149 43.4772 893.229 43.8239C893.309 44.1706 893.469 44.4172 893.709 44.5639C893.962 44.7106 894.349 44.7839 894.869 44.7839H894.969L895.129 46.2839L894.969 47.7639H894.869C893.402 47.7639 892.342 47.3439 891.689 46.5039C891.049 45.6639 890.729 44.3839 890.729 42.6639C890.716 41.0239 890.662 39.3639 890.569 37.6839C890.489 35.9906 890.369 34.5972 890.209 33.5039L892.689 32.9639ZM894.775 44.7839H895.315C897.008 44.7839 898.415 44.6039 899.535 44.2439C900.668 43.8706 901.515 43.4372 902.075 42.9439C902.648 42.4506 903.042 41.9706 903.255 41.5039C903.122 41.2772 902.862 41.1039 902.475 40.9839C902.088 40.8506 901.642 40.7839 901.135 40.7839C900.655 40.7839 900.175 40.8439 899.695 40.9639C899.228 41.0839 898.822 41.2572 898.475 41.4839C899.555 42.6572 900.642 43.5039 901.735 44.0239C902.842 44.5306 904.162 44.7839 905.695 44.7839H906.315L906.475 46.2839L906.315 47.7639H905.695C904.242 47.7639 902.988 47.5906 901.935 47.2439C900.895 46.8839 899.902 46.3039 898.955 45.5039C898.008 44.6906 896.948 43.5372 895.775 42.0439L895.855 40.0639C896.455 39.4639 897.202 39.0106 898.095 38.7039C898.988 38.3972 899.915 38.2439 900.875 38.2439C901.702 38.2439 902.468 38.3572 903.175 38.5839C903.895 38.8106 904.468 39.1439 904.895 39.5839C905.335 40.0239 905.555 40.5439 905.555 41.1439C905.555 42.0906 905.055 43.0839 904.055 44.1239C903.055 45.1639 901.762 46.0306 900.175 46.7239C898.588 47.4172 896.968 47.7639 895.315 47.7639H894.775V44.7839ZM906.123 44.7839H906.423C907.876 44.7839 909.049 44.7239 909.943 44.6039C910.849 44.4706 911.549 44.2439 912.043 43.9239C912.549 43.5906 912.836 43.1239 912.903 42.5239C912.903 41.8039 912.796 41.0906 912.583 40.3839C912.369 39.6639 912.076 39.0772 911.703 38.6239C911.343 38.1706 910.936 37.9439 910.483 37.9439C910.069 37.9439 909.716 38.1306 909.423 38.5039C909.129 38.8639 908.983 39.2439 908.983 39.6439C908.983 39.8572 909.029 40.0306 909.123 40.1639C909.323 40.4172 909.689 40.6239 910.223 40.7839C910.756 40.9306 911.356 41.0039 912.023 41.0039C912.489 41.0039 912.949 40.9639 913.403 40.8839V43.5439C912.736 43.6906 912.089 43.7639 911.463 43.7639C910.516 43.7639 909.669 43.5972 908.923 43.2639C908.189 42.9306 907.663 42.4439 907.343 41.8039C907.103 41.2839 906.983 40.7106 906.983 40.0839C906.983 39.3239 907.143 38.5839 907.463 37.8639C907.783 37.1439 908.229 36.5572 908.803 36.1039C909.376 35.6372 910.009 35.4039 910.703 35.4039C911.489 35.4039 912.196 35.7172 912.823 36.3439C913.449 36.9572 913.936 37.7706 914.283 38.7839C914.643 39.7972 914.823 40.8706 914.823 42.0039C914.823 43.8439 914.129 45.2639 912.743 46.2639C911.369 47.2639 909.249 47.7639 906.383 47.7639H906.123V44.7839ZM908.443 32.2839L910.303 30.4439L912.143 32.2839L911.523 32.9039C911.123 33.3172 910.716 33.7239 910.303 34.1239L908.443 32.2839ZM928.629 48.0039C928.616 47.6706 928.609 47.1772 928.609 46.5239C928.609 45.8572 928.616 45.3572 928.629 45.0239C930.376 45.0239 931.729 44.9172 932.689 44.7039C933.663 44.4772 934.403 44.1172 934.909 43.6239C935.416 43.1306 935.843 42.4106 936.189 41.4639L938.269 41.7039C938.016 42.4506 937.889 43.0572 937.889 43.5239C937.889 44.3639 938.329 44.7839 939.209 44.7839L939.369 46.2639L939.209 47.7639C938.663 47.7639 938.156 47.6439 937.689 47.4039C937.223 47.1506 936.849 46.8039 936.569 46.3639C936.303 45.9239 936.169 45.4239 936.169 44.8639L936.569 44.9439C935.743 46.0906 934.703 46.8906 933.449 47.3439C932.196 47.7839 930.589 48.0039 928.629 48.0039ZM923.649 40.6439C923.303 41.7239 923.129 42.5372 923.129 43.0839C923.129 43.4439 923.343 43.7706 923.769 44.0639C924.209 44.3572 924.849 44.5906 925.689 44.7639C926.543 44.9372 927.576 45.0239 928.789 45.0239C928.816 45.3572 928.829 45.8506 928.829 46.5039C928.829 47.1706 928.816 47.6706 928.789 48.0039C926.403 48.0172 924.523 47.6572 923.149 46.9239C921.789 46.1906 921.049 45.1639 920.929 43.8439C920.916 43.7372 920.909 43.5772 920.909 43.3639C920.909 42.7906 920.989 42.1706 921.149 41.5039C921.309 40.8372 921.503 40.2439 921.729 39.7239L923.649 40.6439ZM927.629 37.8439L929.289 39.5239C928.929 39.8972 928.563 40.2639 928.189 40.6239L927.629 41.1839L926.809 40.3439L925.969 39.5239L927.629 37.8439ZM931.129 37.8439L932.789 39.5239C932.429 39.8972 932.063 40.2639 931.689 40.6239L931.129 41.1839L930.309 40.3439L929.469 39.5239L931.129 37.8439ZM948.313 35.2439L942.533 37.7039C942.973 38.0772 943.473 38.5906 944.033 39.2439C944.607 39.8839 945.113 40.6106 945.553 41.4239C946.007 42.2372 946.233 43.0239 946.233 43.7839C946.233 44.0106 946.2 44.2706 946.133 44.5639C945.867 45.6439 945.16 46.4506 944.013 46.9839C942.867 47.5039 941.427 47.7639 939.693 47.7639H939.013V44.7839H939.693C940.827 44.7839 941.767 44.6972 942.513 44.5239C943.26 44.3372 943.753 44.0906 943.993 43.7839C943.887 43.1439 943.493 42.3839 942.813 41.5039C942.133 40.6239 941.133 39.6506 939.813 38.5839L940.093 35.9839L947.513 32.8639L948.313 35.2439ZM953.794 47.7639C952.888 47.7639 952.154 47.4306 951.594 46.7639C951.034 46.0972 950.568 45.1639 950.194 43.9639L951.994 42.8639C952.181 43.5706 952.408 44.0706 952.674 44.3639C952.941 44.6439 953.314 44.7839 953.794 44.7839H953.974L954.134 46.2839L953.974 47.7639H953.794ZM945.734 51.0839C946.614 50.7239 947.421 50.3039 948.154 49.8239C948.888 49.3572 949.461 48.8906 949.874 48.4239C950.301 47.9572 950.514 47.5572 950.514 47.2239C950.514 46.6772 950.161 45.1906 949.454 42.7639L949.354 42.3639L951.594 41.4839C951.914 42.4039 952.168 43.3906 952.354 44.4439C952.541 45.4839 952.634 46.4106 952.634 47.2239C952.634 48.5306 952.121 49.7372 951.094 50.8439C950.068 51.9639 948.688 52.8839 946.954 53.6039L945.734 51.0839ZM964.998 44.7839C965.385 44.7839 965.692 44.6706 965.918 44.4439C966.145 44.2172 966.258 43.9239 966.258 43.5639C966.258 43.2039 966.118 42.6306 965.838 41.8439C965.572 41.0572 965.345 40.4572 965.158 40.0439L967.198 38.9239C967.452 39.4439 967.718 40.1906 967.998 41.1639C968.278 42.1239 968.418 42.9639 968.418 43.6839C968.418 44.4306 968.272 45.1172 967.978 45.7439C967.685 46.3572 967.278 46.8506 966.758 47.2239C966.238 47.5839 965.652 47.7639 964.998 47.7639H964.938V44.7839H964.998ZM959.578 47.7639V44.7839H959.678C960.358 44.7839 960.885 44.4172 961.258 43.6839C961.512 43.1772 961.738 42.3972 961.938 41.3439L963.998 41.4439C963.852 42.3239 963.778 42.9506 963.778 43.3239C963.778 44.2972 964.185 44.7839 964.998 44.7839H965.038L965.198 46.2839L965.038 47.7639H964.998C964.278 47.7639 963.672 47.5706 963.178 47.1839C962.685 46.7972 962.338 46.2506 962.138 45.5439L962.638 45.5039C961.825 47.0106 960.818 47.7639 959.618 47.7639H959.578ZM953.858 47.7639L953.698 46.2839L953.858 44.7839H953.958C954.372 44.7839 954.778 44.6972 955.178 44.5239C955.578 44.3372 955.878 44.1106 956.078 43.8439C956.358 43.5239 956.572 43.1639 956.718 42.7639C956.865 42.3639 956.998 41.9372 957.118 41.4839L959.198 41.7039C959.185 41.7706 959.112 42.0372 958.978 42.5039C958.845 42.9572 958.778 43.3706 958.778 43.7439C958.778 44.4372 959.058 44.7839 959.618 44.7839H959.658L959.818 46.2839L959.658 47.7639H959.558C958.985 47.7639 958.485 47.6106 958.058 47.3039C957.632 46.9972 957.332 46.5906 957.158 46.0839C956.732 46.6306 956.238 47.0506 955.678 47.3439C955.132 47.6239 954.545 47.7639 953.918 47.7639H953.858ZM962.878 33.1439L964.298 34.5439L962.878 35.9439L962.418 35.4839C962.098 35.1772 961.785 34.8639 961.478 34.5439L962.878 33.1439ZM964.758 35.3239C965.305 35.8439 965.838 36.3772 966.358 36.9239L964.758 38.5239C964.238 37.9772 963.705 37.4439 963.158 36.9239L964.758 35.3239ZM960.998 35.3239C961.545 35.8439 962.078 36.3772 962.598 36.9239L960.998 38.5239C960.478 37.9772 959.945 37.4439 959.398 36.9239L960.998 35.3239Z" fill="#0F0F0F"/>
<path d="M1000.02 36.8239H1008.47V41.0479H1000.02V50.6399H995.488V41.0479H987.04V36.8239H995.488V27.8479H1000.02V36.8239ZM1016.81 53.7639C1016.84 53.1772 1016.85 52.2532 1016.85 50.9919C1016.85 45.9759 1016.6 41.5172 1016.11 37.6159C1015.46 32.8639 1014.36 28.7132 1012.81 25.1639L1016.94 22.7439C1018.55 26.1466 1019.71 30.8986 1020.42 36.9999C1020.83 40.6959 1021.03 45.2426 1021.03 50.6399L1020.99 53.7639H1016.81ZM1032.58 53.7639C1032.61 53.1772 1032.62 52.2532 1032.62 50.9919C1032.62 45.9759 1032.37 41.5172 1031.87 37.6159C1031.23 32.8639 1030.13 28.7132 1028.57 25.1639L1032.71 22.7439C1034.32 26.1466 1035.48 30.8986 1036.19 36.9999C1036.6 40.6959 1036.8 45.2426 1036.8 50.6399L1036.76 53.7639H1032.58ZM1049.49 25.9999C1050.02 27.4079 1050.5 28.5226 1050.94 29.3439C1051.38 30.1359 1051.96 30.7812 1052.66 31.2799C1053.36 31.7492 1054.26 31.9839 1055.34 31.9839C1057.02 31.9839 1058.22 31.4852 1058.95 30.4879C1059.69 29.4612 1060.05 27.9799 1060.05 26.0439C1060.05 25.5746 1059.99 24.7239 1059.88 23.4919L1063.62 22.7439C1063.85 24.0639 1063.97 25.2666 1063.97 26.3519C1063.97 29.4612 1063.23 32.0132 1061.77 34.0079C1060.3 36.0026 1058.22 36.9999 1055.52 36.9999C1053.14 36.9999 1051.24 36.2079 1049.8 34.6239C1048.39 33.0106 1047.16 30.7959 1046.1 27.9799L1049.49 25.9999ZM1048.13 50.9919C1048.13 46.1226 1047.89 41.6639 1047.42 37.6159C1046.78 32.8639 1045.68 28.7132 1044.12 25.1639L1048.26 22.7439C1049.87 26.1466 1051.03 30.8986 1051.74 36.9999C1052.12 40.8132 1052.31 45.3599 1052.31 50.6399V53.7639H1048.13V50.9919ZM1066 59.0879C1067.46 56.8586 1068.21 54.7906 1068.24 52.8839V48.7039H1072.73V52.3119C1072.73 53.8372 1072.35 55.3772 1071.58 56.9319C1070.82 58.5159 1069.85 59.7919 1068.68 60.7599L1066 59.0879ZM1076.63 52.8399C1078.36 47.7652 1081.05 43.4679 1084.68 39.9479C1088.35 36.4279 1092.28 33.8466 1096.47 32.2039L1097.31 37.1319C1093.91 38.4519 1090.64 40.6226 1087.5 43.6439C1084.36 46.6652 1081.98 50.3172 1080.37 54.5999L1076.63 52.8399ZM1093.53 38.7599C1091.27 39.9039 1089.17 40.4759 1087.23 40.4759C1085.56 40.4759 1084.1 40.0946 1082.83 39.3319C1081.57 38.5692 1080.59 37.5719 1079.89 36.3399C1079.21 35.0786 1078.87 33.7292 1078.87 32.2919C1078.87 30.9132 1079.2 29.5492 1079.84 28.1999C1080.52 26.8212 1081.5 25.6479 1082.79 24.6799C1084.08 23.6826 1085.62 23.0666 1087.41 22.8319C1087.62 22.8026 1087.94 22.7879 1088.38 22.7879C1089.61 22.7879 1090.8 23.0226 1091.94 23.4919C1093.12 23.9319 1094.05 24.4306 1094.76 24.9879L1093.04 28.4639C1091.87 27.8186 1090.53 27.4959 1089.04 27.4959C1088.54 27.4959 1088.16 27.5106 1087.89 27.5399C1086.4 27.7159 1085.2 28.2732 1084.29 29.2119C1083.38 30.1212 1082.92 31.1479 1082.92 32.2919C1082.95 33.1719 1083.38 33.9199 1084.2 34.5359C1085.02 35.1519 1086.09 35.4599 1087.41 35.4599C1089.08 35.4599 1090.81 34.9906 1092.6 34.0519L1093.53 38.7599ZM1105.63 53.7639C1105.65 53.1772 1105.67 52.2532 1105.67 50.9919C1105.67 45.9759 1105.42 41.5172 1104.92 37.6159C1104.28 32.8639 1103.18 28.7132 1101.62 25.1639L1105.76 22.7439C1107.37 26.1466 1108.53 30.8986 1109.23 36.9999C1109.64 40.6959 1109.85 45.2426 1109.85 50.6399L1109.81 53.7639H1105.63ZM1124.43 52.0919C1123.14 52.0919 1121.92 51.7692 1120.78 51.1239C1119.66 50.4492 1118.77 49.5546 1118.1 48.4399C1117.45 47.3252 1117.13 46.1226 1117.13 44.8319C1117.13 43.5412 1117.45 42.3386 1118.1 41.2239C1118.77 40.1092 1119.66 39.2292 1120.78 38.5839C1121.92 37.9386 1123.14 37.6159 1124.43 37.6159C1125.78 37.6159 1127.01 37.9386 1128.13 38.5839C1129.24 39.2292 1130.12 40.1092 1130.77 41.2239C1131.44 42.3386 1131.78 43.5412 1131.78 44.8319C1131.78 46.1226 1131.44 47.3252 1130.77 48.4399C1130.12 49.5546 1129.24 50.4492 1128.13 51.1239C1127.01 51.7692 1125.78 52.0919 1124.43 52.0919ZM1124.43 48.1759C1125.37 48.1759 1126.15 47.8679 1126.76 47.2519C1127.38 46.6066 1127.69 45.7999 1127.69 44.8319C1127.69 43.8932 1127.38 43.1159 1126.76 42.4999C1126.15 41.8546 1125.37 41.5319 1124.43 41.5319C1123.55 41.5319 1122.8 41.8546 1122.19 42.4999C1121.57 43.1159 1121.26 43.8932 1121.26 44.8319C1121.26 45.7999 1121.57 46.6066 1122.19 47.2519C1122.8 47.8679 1123.55 48.1759 1124.43 48.1759Z" fill="#0F0F0F"/>
</g>
<defs>
<clipPath id="clip0_2396_62760">
<rect y="0.263916" width="392" height="85" rx="42.5" fill="white"/>
</clipPath>
<clipPath id="clip1_2396_62760">
<rect x="416" y="0.263916" width="392" height="85" rx="42.5" fill="white"/>
</clipPath>
<clipPath id="clip2_2396_62760">
<rect x="832" y="0.263916" width="392" height="85" rx="42.5" fill="white"/>
</clipPath>
</defs>
</svg>
