<svg width="392" height="86" viewBox="0 0 392 86" fill="none" xmlns="http://www.w3.org/2000/svg">
<g clip-path="url(#clip0_2396_62775)">
<rect x="263.5" y="0.263916" width="85" height="85" rx="42.5" fill="#FFECB3"/>
<path d="M55.88 32.9639C56.1067 34.6706 56.3 38.9106 56.46 45.6839C56.4867 47.1906 56.2533 48.4906 55.76 49.5839C55.28 50.6772 54.5667 51.5172 53.62 52.1039C52.6733 52.6906 51.5333 52.9839 50.2 52.9839C49.1333 52.9839 48.1533 52.7706 47.26 52.3439C46.3667 51.9172 45.6533 51.2972 45.12 50.4839C44.6 49.6839 44.34 48.7506 44.34 47.6839C44.34 46.9106 44.48 46.0506 44.76 45.1039C45.04 44.1439 45.36 43.2772 45.72 42.5039L47.66 43.3839C47.3 44.1706 47.0267 44.8572 46.84 45.4439C46.6667 46.0172 46.58 46.6039 46.58 47.2039C46.58 48.0306 46.9133 48.7039 47.58 49.2239C48.2467 49.7439 49.12 50.0039 50.2 50.0039C51.56 50.0039 52.5867 49.6572 53.28 48.9639C53.9733 48.2706 54.3 47.2239 54.26 45.8239C54.1933 43.5172 54.0733 41.2106 53.9 38.9039C53.7267 36.5839 53.5533 34.7839 53.38 33.5039L55.88 32.9639ZM60.6891 32.9639C60.8224 33.9372 60.9291 35.2572 61.0091 36.9239C61.0891 38.5772 61.1291 40.1106 61.1291 41.5239V42.2839C61.1157 42.9639 61.1491 43.4772 61.2291 43.8239C61.3091 44.1706 61.4691 44.4172 61.7091 44.5639C61.9624 44.7106 62.3491 44.7839 62.8691 44.7839H62.9691L63.1291 46.2839L62.9691 47.7639H62.8691C61.4024 47.7639 60.3424 47.3439 59.6891 46.5039C59.0491 45.6639 58.7291 44.3839 58.7291 42.6639C58.7157 41.0239 58.6624 39.3639 58.5691 37.6839C58.4891 35.9906 58.3691 34.5972 58.2091 33.5039L60.6891 32.9639ZM62.775 44.7839H63.315C65.0083 44.7839 66.415 44.6039 67.535 44.2439C68.6683 43.8706 69.515 43.4372 70.075 42.9439C70.6483 42.4506 71.0417 41.9706 71.255 41.5039C71.1217 41.2772 70.8617 41.1039 70.475 40.9839C70.0883 40.8506 69.6417 40.7839 69.135 40.7839C68.655 40.7839 68.175 40.8439 67.695 40.9639C67.2283 41.0839 66.8217 41.2572 66.475 41.4839C67.555 42.6572 68.6417 43.5039 69.735 44.0239C70.8417 44.5306 72.1617 44.7839 73.695 44.7839H74.315L74.475 46.2839L74.315 47.7639H73.695C72.2417 47.7639 70.9883 47.5906 69.935 47.2439C68.895 46.8839 67.9017 46.3039 66.955 45.5039C66.0083 44.6906 64.9483 43.5372 63.775 42.0439L63.855 40.0639C64.455 39.4639 65.2017 39.0106 66.095 38.7039C66.9883 38.3972 67.915 38.2439 68.875 38.2439C69.7017 38.2439 70.4683 38.3572 71.175 38.5839C71.895 38.8106 72.4683 39.1439 72.895 39.5839C73.335 40.0239 73.555 40.5439 73.555 41.1439C73.555 42.0906 73.055 43.0839 72.055 44.1239C71.055 45.1639 69.7617 46.0306 68.175 46.7239C66.5883 47.4172 64.9683 47.7639 63.315 47.7639H62.775V44.7839ZM74.1227 44.7839H74.4227C75.876 44.7839 77.0493 44.7239 77.9427 44.6039C78.8493 44.4706 79.5493 44.2439 80.0427 43.9239C80.5493 43.5906 80.836 43.1239 80.9027 42.5239C80.9027 41.8039 80.796 41.0906 80.5827 40.3839C80.3693 39.6639 80.076 39.0772 79.7027 38.6239C79.3427 38.1706 78.936 37.9439 78.4827 37.9439C78.0693 37.9439 77.716 38.1306 77.4227 38.5039C77.1293 38.8639 76.9827 39.2439 76.9827 39.6439C76.9827 39.8572 77.0293 40.0306 77.1227 40.1639C77.3227 40.4172 77.6893 40.6239 78.2227 40.7839C78.756 40.9306 79.356 41.0039 80.0227 41.0039C80.4893 41.0039 80.9493 40.9639 81.4027 40.8839V43.5439C80.736 43.6906 80.0893 43.7639 79.4627 43.7639C78.516 43.7639 77.6693 43.5972 76.9227 43.2639C76.1893 42.9306 75.6627 42.4439 75.3427 41.8039C75.1027 41.2839 74.9827 40.7106 74.9827 40.0839C74.9827 39.3239 75.1427 38.5839 75.4627 37.8639C75.7827 37.1439 76.2293 36.5572 76.8027 36.1039C77.376 35.6372 78.0093 35.4039 78.7027 35.4039C79.4893 35.4039 80.196 35.7172 80.8227 36.3439C81.4493 36.9572 81.936 37.7706 82.2827 38.7839C82.6427 39.7972 82.8227 40.8706 82.8227 42.0039C82.8227 43.8439 82.1293 45.2639 80.7427 46.2639C79.3693 47.2639 77.2493 47.7639 74.3827 47.7639H74.1227V44.7839ZM76.4427 32.2839L78.3027 30.4439L80.1427 32.2839L79.5227 32.9039C79.1227 33.3172 78.716 33.7239 78.3027 34.1239L76.4427 32.2839ZM96.6294 48.0039C96.616 47.6706 96.6094 47.1772 96.6094 46.5239C96.6094 45.8572 96.616 45.3572 96.6294 45.0239C98.376 45.0239 99.7294 44.9172 100.689 44.7039C101.663 44.4772 102.403 44.1172 102.909 43.6239C103.416 43.1306 103.843 42.4106 104.189 41.4639L106.269 41.7039C106.016 42.4506 105.889 43.0572 105.889 43.5239C105.889 44.3639 106.329 44.7839 107.209 44.7839L107.369 46.2639L107.209 47.7639C106.663 47.7639 106.156 47.6439 105.689 47.4039C105.223 47.1506 104.849 46.8039 104.569 46.3639C104.303 45.9239 104.169 45.4239 104.169 44.8639L104.569 44.9439C103.743 46.0906 102.703 46.8906 101.449 47.3439C100.196 47.7839 98.5894 48.0039 96.6294 48.0039ZM91.6494 40.6439C91.3027 41.7239 91.1294 42.5372 91.1294 43.0839C91.1294 43.4439 91.3427 43.7706 91.7694 44.0639C92.2094 44.3572 92.8494 44.5906 93.6894 44.7639C94.5427 44.9372 95.576 45.0239 96.7894 45.0239C96.816 45.3572 96.8294 45.8506 96.8294 46.5039C96.8294 47.1706 96.816 47.6706 96.7894 48.0039C94.4027 48.0172 92.5227 47.6572 91.1494 46.9239C89.7894 46.1906 89.0494 45.1639 88.9294 43.8439C88.916 43.7372 88.9094 43.5772 88.9094 43.3639C88.9094 42.7906 88.9894 42.1706 89.1494 41.5039C89.3094 40.8372 89.5027 40.2439 89.7294 39.7239L91.6494 40.6439ZM95.6294 37.8439L97.2894 39.5239C96.9294 39.8972 96.5627 40.2639 96.1894 40.6239L95.6294 41.1839L94.8094 40.3439L93.9694 39.5239L95.6294 37.8439ZM99.1294 37.8439L100.789 39.5239C100.429 39.8972 100.063 40.2639 99.6894 40.6239L99.1294 41.1839L98.3094 40.3439L97.4694 39.5239L99.1294 37.8439ZM116.313 35.2439L110.533 37.7039C110.973 38.0772 111.473 38.5906 112.033 39.2439C112.607 39.8839 113.113 40.6106 113.553 41.4239C114.007 42.2372 114.233 43.0239 114.233 43.7839C114.233 44.0106 114.2 44.2706 114.133 44.5639C113.867 45.6439 113.16 46.4506 112.013 46.9839C110.867 47.5039 109.427 47.7639 107.693 47.7639H107.013V44.7839H107.693C108.827 44.7839 109.767 44.6972 110.513 44.5239C111.26 44.3372 111.753 44.0906 111.993 43.7839C111.887 43.1439 111.493 42.3839 110.813 41.5039C110.133 40.6239 109.133 39.6506 107.813 38.5839L108.093 35.9839L115.513 32.8639L116.313 35.2439ZM121.794 47.7639C120.888 47.7639 120.154 47.4306 119.594 46.7639C119.034 46.0972 118.568 45.1639 118.194 43.9639L119.994 42.8639C120.181 43.5706 120.408 44.0706 120.674 44.3639C120.941 44.6439 121.314 44.7839 121.794 44.7839H121.974L122.134 46.2839L121.974 47.7639H121.794ZM113.734 51.0839C114.614 50.7239 115.421 50.3039 116.154 49.8239C116.888 49.3572 117.461 48.8906 117.874 48.4239C118.301 47.9572 118.514 47.5572 118.514 47.2239C118.514 46.6772 118.161 45.1906 117.454 42.7639L117.354 42.3639L119.594 41.4839C119.914 42.4039 120.168 43.3906 120.354 44.4439C120.541 45.4839 120.634 46.4106 120.634 47.2239C120.634 48.5306 120.121 49.7372 119.094 50.8439C118.068 51.9639 116.688 52.8839 114.954 53.6039L113.734 51.0839ZM132.998 44.7839C133.385 44.7839 133.692 44.6706 133.918 44.4439C134.145 44.2172 134.258 43.9239 134.258 43.5639C134.258 43.2039 134.118 42.6306 133.838 41.8439C133.572 41.0572 133.345 40.4572 133.158 40.0439L135.198 38.9239C135.452 39.4439 135.718 40.1906 135.998 41.1639C136.278 42.1239 136.418 42.9639 136.418 43.6839C136.418 44.4306 136.272 45.1172 135.978 45.7439C135.685 46.3572 135.278 46.8506 134.758 47.2239C134.238 47.5839 133.652 47.7639 132.998 47.7639H132.938V44.7839H132.998ZM127.578 47.7639V44.7839H127.678C128.358 44.7839 128.885 44.4172 129.258 43.6839C129.512 43.1772 129.738 42.3972 129.938 41.3439L131.998 41.4439C131.852 42.3239 131.778 42.9506 131.778 43.3239C131.778 44.2972 132.185 44.7839 132.998 44.7839H133.038L133.198 46.2839L133.038 47.7639H132.998C132.278 47.7639 131.672 47.5706 131.178 47.1839C130.685 46.7972 130.338 46.2506 130.138 45.5439L130.638 45.5039C129.825 47.0106 128.818 47.7639 127.618 47.7639H127.578ZM121.858 47.7639L121.698 46.2839L121.858 44.7839H121.958C122.372 44.7839 122.778 44.6972 123.178 44.5239C123.578 44.3372 123.878 44.1106 124.078 43.8439C124.358 43.5239 124.572 43.1639 124.718 42.7639C124.865 42.3639 124.998 41.9372 125.118 41.4839L127.198 41.7039C127.185 41.7706 127.112 42.0372 126.978 42.5039C126.845 42.9572 126.778 43.3706 126.778 43.7439C126.778 44.4372 127.058 44.7839 127.618 44.7839H127.658L127.818 46.2839L127.658 47.7639H127.558C126.985 47.7639 126.485 47.6106 126.058 47.3039C125.632 46.9972 125.332 46.5906 125.158 46.0839C124.732 46.6306 124.238 47.0506 123.678 47.3439C123.132 47.6239 122.545 47.7639 121.918 47.7639H121.858ZM130.878 33.1439L132.298 34.5439L130.878 35.9439L130.418 35.4839C130.098 35.1772 129.785 34.8639 129.478 34.5439L130.878 33.1439ZM132.758 35.3239C133.305 35.8439 133.838 36.3772 134.358 36.9239L132.758 38.5239C132.238 37.9772 131.705 37.4439 131.158 36.9239L132.758 35.3239ZM128.998 35.3239C129.545 35.8439 130.078 36.3772 130.598 36.9239L128.998 38.5239C128.478 37.9772 127.945 37.4439 127.398 36.9239L128.998 35.3239Z" fill="#0F0F0F"/>
<path d="M168.02 36.8239H176.468V41.0479H168.02V50.6399H163.488V41.0479H155.04V36.8239H163.488V27.8479H168.02V36.8239ZM184.809 53.7639C184.838 53.1772 184.853 52.2532 184.853 50.9919C184.853 45.9759 184.604 41.5172 184.105 37.6159C183.46 32.8639 182.36 28.7132 180.805 25.1639L184.941 22.7439C186.554 26.1466 187.713 30.8986 188.417 36.9999C188.828 40.6959 189.033 45.2426 189.033 50.6399L188.989 53.7639H184.809ZM200.579 53.7639C200.608 53.1772 200.623 52.2532 200.623 50.9919C200.623 45.9759 200.373 41.5172 199.875 37.6159C199.229 32.8639 198.129 28.7132 196.575 25.1639L200.711 22.7439C202.324 26.1466 203.483 30.8986 204.187 36.9999C204.597 40.6959 204.803 45.2426 204.803 50.6399L204.759 53.7639H200.579ZM217.492 25.9999C218.02 27.4079 218.504 28.5226 218.944 29.3439C219.384 30.1359 219.956 30.7812 220.66 31.2799C221.364 31.7492 222.259 31.9839 223.344 31.9839C225.016 31.9839 226.219 31.4852 226.952 30.4879C227.685 29.4612 228.052 27.9799 228.052 26.0439C228.052 25.5746 227.993 24.7239 227.876 23.4919L231.616 22.7439C231.851 24.0639 231.968 25.2666 231.968 26.3519C231.968 29.4612 231.235 32.0132 229.768 34.0079C228.301 36.0026 226.219 36.9999 223.52 36.9999C221.144 36.9999 219.237 36.2079 217.8 34.6239C216.392 33.0106 215.16 30.7959 214.104 27.9799L217.492 25.9999ZM216.128 50.9919C216.128 46.1226 215.893 41.6639 215.424 37.6159C214.779 32.8639 213.679 28.7132 212.124 25.1639L216.26 22.7439C217.873 26.1466 219.032 30.8986 219.736 36.9999C220.117 40.8132 220.308 45.3599 220.308 50.6399V53.7639H216.128V50.9919ZM233.997 59.0879C235.464 56.8586 236.212 54.7906 236.241 52.8839V48.7039H240.729V52.3119C240.729 53.8372 240.348 55.3772 239.585 56.9319C238.822 58.5159 237.854 59.7919 236.681 60.7599L233.997 59.0879ZM244.631 52.8399C246.362 47.7652 249.046 43.4679 252.683 39.9479C256.35 36.4279 260.28 33.8466 264.475 32.2039L265.311 37.1319C261.908 38.4519 258.638 40.6226 255.499 43.6439C252.36 46.6652 249.984 50.3172 248.371 54.5999L244.631 52.8399ZM261.527 38.7599C259.268 39.9039 257.171 40.4759 255.235 40.4759C253.563 40.4759 252.096 40.0946 250.835 39.3319C249.574 38.5692 248.591 37.5719 247.887 36.3399C247.212 35.0786 246.875 33.7292 246.875 32.2919C246.875 30.9132 247.198 29.5492 247.843 28.1999C248.518 26.8212 249.5 25.6479 250.791 24.6799C252.082 23.6826 253.622 23.0666 255.411 22.8319C255.616 22.8026 255.939 22.7879 256.379 22.7879C257.611 22.7879 258.799 23.0226 259.943 23.4919C261.116 23.9319 262.055 24.4306 262.759 24.9879L261.043 28.4639C259.87 27.8186 258.535 27.4959 257.039 27.4959C256.54 27.4959 256.159 27.5106 255.895 27.5399C254.399 27.7159 253.196 28.2732 252.287 29.2119C251.378 30.1212 250.923 31.1479 250.923 32.2919C250.952 33.1719 251.378 33.9199 252.199 34.5359C253.02 35.1519 254.091 35.4599 255.411 35.4599C257.083 35.4599 258.814 34.9906 260.603 34.0519L261.527 38.7599ZM273.626 53.7639C273.655 53.1772 273.67 52.2532 273.67 50.9919C273.67 45.9759 273.42 41.5172 272.922 37.6159C272.276 32.8639 271.176 28.7132 269.622 25.1639L273.758 22.7439C275.371 26.1466 276.53 30.8986 277.234 36.9999C277.644 40.6959 277.85 45.2426 277.85 50.6399L277.806 53.7639H273.626ZM292.431 52.0919C291.14 52.0919 289.923 51.7692 288.779 51.1239C287.664 50.4492 286.77 49.5546 286.095 48.4399C285.45 47.3252 285.127 46.1226 285.127 44.8319C285.127 43.5412 285.45 42.3386 286.095 41.2239C286.77 40.1092 287.664 39.2292 288.779 38.5839C289.923 37.9386 291.14 37.6159 292.431 37.6159C293.78 37.6159 295.012 37.9386 296.127 38.5839C297.242 39.2292 298.122 40.1092 298.767 41.2239C299.442 42.3386 299.779 43.5412 299.779 44.8319C299.779 46.1226 299.442 47.3252 298.767 48.4399C298.122 49.5546 297.242 50.4492 296.127 51.1239C295.012 51.7692 293.78 52.0919 292.431 52.0919ZM292.431 48.1759C293.37 48.1759 294.147 47.8679 294.763 47.2519C295.379 46.6066 295.687 45.7999 295.687 44.8319C295.687 43.8932 295.379 43.1159 294.763 42.4999C294.147 41.8546 293.37 41.5319 292.431 41.5319C291.551 41.5319 290.803 41.8546 290.187 42.4999C289.571 43.1159 289.263 43.8932 289.263 44.8319C289.263 45.7999 289.571 46.6066 290.187 47.2519C290.803 47.8679 291.551 48.1759 292.431 48.1759Z" fill="#0F0F0F"/>
</g>
<defs>
<clipPath id="clip0_2396_62775">
<rect y="0.263916" width="392" height="85" rx="42.5" fill="white"/>
</clipPath>
</defs>
</svg>
