<svg width="392" height="86" viewBox="0 0 392 86" fill="none" xmlns="http://www.w3.org/2000/svg">
<rect x="239" y="0.263916" width="85" height="85" rx="42.5" fill="#FFECB3"/>
<path d="M68 51.0839C68.88 50.7239 69.6867 50.3039 70.42 49.8239C71.1533 49.3572 71.7267 48.8906 72.14 48.4239C72.5667 47.9572 72.78 47.5572 72.78 47.2239C72.78 46.6772 72.4267 45.1906 71.72 42.7639L71.62 42.3639L73.86 41.4839C74.18 42.4039 74.4333 43.3906 74.62 44.4439C74.8067 45.4839 74.9 46.4106 74.9 47.2239C74.9 48.5306 74.3867 49.7372 73.36 50.8439C72.3333 51.9639 70.9533 52.8839 69.22 53.6039L68 51.0839ZM76.9948 47.6439C77.1282 46.7639 77.1948 45.4039 77.1948 43.5639C77.1948 41.7239 77.1348 39.7972 77.0148 37.7839C76.9082 35.7572 76.7815 34.3372 76.6348 33.5239L79.1348 32.9439C79.2548 33.7172 79.3615 35.0706 79.4548 37.0039C79.5482 38.9372 79.5948 40.8372 79.5948 42.7039C79.5948 45.0106 79.5148 46.7439 79.3548 47.9039L76.9948 47.6439ZM87.4763 36.9239L90.2163 43.4039C90.4296 43.9372 90.6763 44.3039 90.9563 44.5039C91.2363 44.6906 91.6363 44.7839 92.1563 44.7839H92.3963L92.5563 46.2839L92.3963 47.7639H92.1563C91.2496 47.7639 90.4896 47.5106 89.8763 47.0039C89.2763 46.4972 88.7429 45.6972 88.2763 44.6039L85.4163 38.0439L87.4763 36.9239ZM82.2163 44.1639C82.6429 44.3906 83.1096 44.5972 83.6163 44.7839C84.1229 44.9572 84.7229 45.0439 85.4163 45.0439C86.2829 45.0439 86.9829 44.9172 87.5163 44.6639C88.0496 44.3972 88.4629 44.1172 88.7563 43.8239L90.0963 45.5639C89.7896 45.9506 89.4896 46.2906 89.1963 46.5839C88.9163 46.8639 88.4763 47.1506 87.8763 47.4439C87.2763 47.7239 86.5563 47.8639 85.7163 47.8639C84.0896 47.8639 82.5629 47.3306 81.1363 46.2639L82.2163 44.1639ZM84.7563 33.7239L86.6163 31.8839L88.4563 33.7239L87.8363 34.3439C87.4363 34.7572 87.0296 35.1639 86.6163 35.5639L84.7563 33.7239ZM92.1969 44.7839H92.8769C94.0102 44.7839 94.9435 44.6972 95.6769 44.5239C96.4102 44.3506 96.9035 44.1172 97.1569 43.8239C96.9702 42.5839 95.5835 40.9439 92.9969 38.9039L93.2569 36.3039L100.697 33.1639L101.497 35.5439L95.7169 38.0039C96.5702 38.7372 97.3902 39.6306 98.1769 40.6839C98.9635 41.7372 99.3569 42.7839 99.3569 43.8239C99.3569 44.0506 99.3235 44.2972 99.2569 44.5639C98.9902 45.6439 98.2902 46.4506 97.1569 46.9839C96.0235 47.5039 94.5969 47.7639 92.8769 47.7639H92.1969V44.7839ZM93.4769 33.8839L99.9769 31.2239L100.317 32.1839L93.3569 35.1039L93.4769 33.8839ZM112.713 36.8439C113.019 39.6972 113.233 41.5772 113.353 42.4839C113.433 43.1506 113.526 43.6439 113.633 43.9639C113.753 44.2839 113.919 44.5039 114.133 44.6239C114.359 44.7306 114.686 44.7839 115.113 44.7839H115.453L115.613 46.2839L115.453 47.7639H115.113C113.926 47.7639 113.013 47.3906 112.373 46.6439C111.746 45.8839 111.326 44.6306 111.113 42.8839L110.973 41.8239L110.393 37.3439L112.713 36.8439ZM112.413 46.3839C111.559 46.6639 110.726 46.8039 109.913 46.8039C108.713 46.8039 107.726 46.5172 106.953 45.9439C106.193 45.3572 105.813 44.5639 105.813 43.5639C105.813 42.3372 106.293 41.3039 107.253 40.4639C108.226 39.6239 109.513 38.9106 111.113 38.3239L111.673 40.9239C110.779 41.1372 109.953 41.4506 109.193 41.8639C108.446 42.2639 108.053 42.6439 108.013 43.0039C107.986 43.2972 108.133 43.5439 108.453 43.7439C108.773 43.9306 109.213 44.0239 109.773 44.0239C110.426 44.0239 111.113 43.8772 111.833 43.5839L112.413 46.3839ZM115.224 44.7839H116.184C117.504 44.7839 118.438 44.6706 118.984 44.4439C119.531 44.2172 119.804 43.8706 119.804 43.4039C119.791 43.1106 119.638 42.5506 119.344 41.7239C119.051 40.8839 118.838 40.3239 118.704 40.0439L120.824 38.8839C121.091 39.4439 121.358 40.1906 121.624 41.1239C121.891 42.0439 122.024 42.8506 122.024 43.5439C122.011 44.9039 121.551 45.9506 120.644 46.6839C119.738 47.4039 118.398 47.7639 116.624 47.7639H115.224V44.7839ZM115.444 49.4639L117.104 51.1439C116.744 51.5172 116.378 51.8839 116.004 52.2439L115.444 52.8039L114.624 51.9639L113.784 51.1439L115.444 49.4639ZM118.944 49.4639L120.604 51.1439C120.244 51.5172 119.878 51.8839 119.504 52.2439L118.944 52.8039L118.124 51.9639L117.284 51.1439L118.944 49.4639ZM126.244 32.9639C126.377 33.9372 126.484 35.2572 126.564 36.9239C126.644 38.5772 126.684 40.1106 126.684 41.5239V42.2839C126.67 42.9639 126.704 43.4772 126.784 43.8239C126.864 44.1706 127.024 44.4172 127.264 44.5639C127.517 44.7106 127.904 44.7839 128.424 44.7839H128.524L128.684 46.2839L128.524 47.7639H128.424C126.957 47.7639 125.897 47.3439 125.244 46.5039C124.604 45.6639 124.284 44.3839 124.284 42.6639C124.27 41.0239 124.217 39.3639 124.124 37.6839C124.044 35.9906 123.924 34.5972 123.764 33.5039L126.244 32.9639ZM132.39 43.3239C133.216 43.8839 133.963 44.3306 134.63 44.6639C135.31 44.9839 135.816 45.1439 136.15 45.1439C136.27 45.1439 136.356 45.1239 136.41 45.0839C136.543 44.9906 136.643 44.8572 136.71 44.6839C136.79 44.4972 136.83 44.2839 136.83 44.0439C136.83 43.5106 136.683 43.0172 136.39 42.5639C136.096 42.0972 135.71 41.8639 135.23 41.8639C134.483 41.8639 133.65 42.9239 132.73 45.0439C132.33 45.9506 131.783 46.6306 131.09 47.0839C130.396 47.5372 129.603 47.7639 128.71 47.7639H128.33L128.39 44.7839H128.75C129.79 44.7839 130.643 44.1572 131.31 42.9039C131.976 41.6639 132.616 40.7372 133.23 40.1239C133.843 39.4972 134.53 39.1839 135.29 39.1839C136.01 39.1839 136.643 39.4172 137.19 39.8839C137.736 40.3372 138.15 40.9306 138.43 41.6639C138.723 42.3839 138.87 43.1439 138.87 43.9439C138.87 44.7172 138.723 45.4372 138.43 46.1039C138.136 46.7572 137.71 47.2506 137.15 47.5839C136.856 47.7706 136.496 47.8639 136.07 47.8639C134.896 47.8639 133.296 47.1706 131.27 45.7839L132.39 43.3239ZM145.962 47.7639C145.056 47.7639 144.322 47.4306 143.762 46.7639C143.202 46.0972 142.736 45.1639 142.362 43.9639L144.162 42.8639C144.349 43.5706 144.576 44.0706 144.842 44.3639C145.109 44.6439 145.482 44.7839 145.962 44.7839H146.142L146.302 46.2839L146.142 47.7639H145.962ZM137.902 51.0839C138.782 50.7239 139.589 50.3039 140.322 49.8239C141.056 49.3572 141.629 48.8906 142.042 48.4239C142.469 47.9572 142.682 47.5572 142.682 47.2239C142.682 46.6772 142.329 45.1906 141.622 42.7639L141.522 42.3639L143.762 41.4839C144.082 42.4039 144.336 43.3906 144.522 44.4439C144.709 45.4839 144.802 46.4106 144.802 47.2239C144.802 48.5306 144.289 49.7372 143.262 50.8439C142.236 51.9639 140.856 52.8839 139.122 53.6039L137.902 51.0839ZM157.166 44.7839C157.553 44.7839 157.86 44.6706 158.086 44.4439C158.313 44.2172 158.426 43.9239 158.426 43.5639C158.426 43.2039 158.286 42.6306 158.006 41.8439C157.74 41.0572 157.513 40.4572 157.326 40.0439L159.366 38.9239C159.62 39.4439 159.886 40.1906 160.166 41.1639C160.446 42.1239 160.586 42.9639 160.586 43.6839C160.586 44.4306 160.44 45.1172 160.146 45.7439C159.853 46.3572 159.446 46.8506 158.926 47.2239C158.406 47.5839 157.82 47.7639 157.166 47.7639H157.106V44.7839H157.166ZM151.746 47.7639V44.7839H151.846C152.526 44.7839 153.053 44.4172 153.426 43.6839C153.68 43.1772 153.906 42.3972 154.106 41.3439L156.166 41.4439C156.02 42.3239 155.946 42.9506 155.946 43.3239C155.946 44.2972 156.353 44.7839 157.166 44.7839H157.206L157.366 46.2839L157.206 47.7639H157.166C156.446 47.7639 155.84 47.5706 155.346 47.1839C154.853 46.7972 154.506 46.2506 154.306 45.5439L154.806 45.5039C153.993 47.0106 152.986 47.7639 151.786 47.7639H151.746ZM146.026 47.7639L145.866 46.2839L146.026 44.7839H146.126C146.54 44.7839 146.946 44.6972 147.346 44.5239C147.746 44.3372 148.046 44.1106 148.246 43.8439C148.526 43.5239 148.74 43.1639 148.886 42.7639C149.033 42.3639 149.166 41.9372 149.286 41.4839L151.366 41.7039C151.353 41.7706 151.28 42.0372 151.146 42.5039C151.013 42.9572 150.946 43.3706 150.946 43.7439C150.946 44.4372 151.226 44.7839 151.786 44.7839H151.826L151.986 46.2839L151.826 47.7639H151.726C151.153 47.7639 150.653 47.6106 150.226 47.3039C149.8 46.9972 149.5 46.5906 149.326 46.0839C148.9 46.6306 148.406 47.0506 147.846 47.3439C147.3 47.6239 146.713 47.7639 146.086 47.7639H146.026Z" fill="#0F0F0F"/>
<path d="M192.52 36.8239H200.968V41.0479H192.52V50.6399H187.988V41.0479H179.54V36.8239H187.988V27.8479H192.52V36.8239ZM211.069 27.2759C211.949 30.6199 213.342 33.0252 215.249 34.4919C217.185 35.9586 219.385 36.6919 221.849 36.6919C223.228 36.6919 224.621 36.5012 226.029 36.1199C227.437 35.7092 228.713 35.1812 229.857 34.5359L231.001 38.8919C228.42 40.3292 225.897 41.0479 223.433 41.0479C221.585 41.0479 219.928 40.6519 218.461 39.8599C216.994 39.0386 215.836 38.0119 214.985 36.7799C214.164 35.5186 213.709 34.2279 213.621 32.9079C213.504 31.2066 213.826 29.5932 214.589 28.0679C215.381 26.5132 216.496 25.2666 217.933 24.3279C219.37 23.3892 220.969 22.9199 222.729 22.9199C224.078 22.9199 225.354 23.2132 226.557 23.7999C227.789 24.3572 229.006 25.1199 230.209 26.0879L228.449 29.5639C227.628 29.0946 226.733 28.7132 225.765 28.4199C224.797 28.0972 223.844 27.9359 222.905 27.9359C221.38 27.9359 220.089 28.3612 219.033 29.2119C218.006 30.0332 217.493 31.0452 217.493 32.2479C217.493 33.4506 217.948 34.4626 218.857 35.2839C219.796 36.0759 221.101 36.4719 222.773 36.4719C224.826 36.4719 227.188 35.8266 229.857 34.5359L231.001 38.8919C229.798 39.5959 228.42 40.1679 226.865 40.6079C225.31 41.0479 223.726 41.2679 222.113 41.2679C219.004 41.2679 216.158 40.3586 213.577 38.5399C211.025 36.6919 209.118 33.6999 207.857 29.5639L211.069 27.2759ZM209.309 53.7639C209.338 53.1772 209.353 52.2532 209.353 50.9919C209.353 45.9759 209.104 41.5172 208.605 37.6159C207.96 32.8639 206.86 28.7132 205.305 25.1639L209.441 22.7439C211.054 26.1466 212.213 30.8986 212.917 36.9999C213.328 40.6959 213.533 45.2426 213.533 50.6399L213.489 53.7639H209.309ZM248.163 54.8199C247.429 53.1479 246.799 50.5519 246.271 47.0319C245.772 43.4826 245.435 39.9186 245.259 36.3399C245.171 34.1692 244.789 32.1452 244.115 30.2679C243.469 28.3612 242.443 27.4079 241.035 27.4079C240.067 27.4079 239.201 27.9359 238.439 28.9919C237.705 30.0186 237.339 31.1919 237.339 32.5119C237.339 33.4506 237.676 34.1986 238.351 34.7559C239.055 35.3132 240.067 35.5919 241.387 35.5919C242.413 35.5919 243.279 35.4746 243.983 35.2399C244.716 35.0052 245.229 34.7999 245.523 34.6239C245.816 34.4186 246.197 34.1252 246.667 33.7439L248.295 38.4519C247.473 39.0386 246.461 39.5372 245.259 39.9479C244.056 40.3292 242.707 40.5199 241.211 40.5199C238.864 40.5199 236.987 39.8452 235.579 38.4959C234.171 37.1172 233.467 35.1959 233.467 32.7319C233.467 31.2066 233.804 29.6812 234.479 28.1559C235.153 26.6012 236.063 25.3252 237.207 24.3279C238.38 23.3012 239.685 22.7879 241.123 22.7879C243.205 22.7879 244.804 23.5506 245.919 25.0759C247.063 26.6012 247.825 28.2146 248.207 29.9159C248.588 31.6172 248.911 33.6412 249.175 35.9879C250.084 44.1719 251.111 49.6279 252.255 52.3559L248.163 54.8199ZM255.811 52.8399C257.541 47.7652 260.225 43.4679 263.863 39.9479C267.529 36.4279 271.46 33.8466 275.655 32.2039L276.491 37.1319C273.088 38.4519 269.817 40.6226 266.679 43.6439C263.54 46.6652 261.164 50.3172 259.551 54.5999L255.811 52.8399ZM272.707 38.7599C270.448 39.9039 268.351 40.4759 266.415 40.4759C264.743 40.4759 263.276 40.0946 262.015 39.3319C260.753 38.5692 259.771 37.5719 259.067 36.3399C258.392 35.0786 258.055 33.7292 258.055 32.2919C258.055 30.9132 258.377 29.5492 259.023 28.1999C259.697 26.8212 260.68 25.6479 261.971 24.6799C263.261 23.6826 264.801 23.0666 266.591 22.8319C266.796 22.8026 267.119 22.7879 267.559 22.7879C268.791 22.7879 269.979 23.0226 271.123 23.4919C272.296 23.9319 273.235 24.4306 273.939 24.9879L272.223 28.4639C271.049 27.8186 269.715 27.4959 268.219 27.4959C267.72 27.4959 267.339 27.5106 267.075 27.5399C265.579 27.7159 264.376 28.2732 263.467 29.2119C262.557 30.1212 262.103 31.1479 262.103 32.2919C262.132 33.1719 262.557 33.9199 263.379 34.5359C264.2 35.1519 265.271 35.4599 266.591 35.4599C268.263 35.4599 269.993 34.9906 271.783 34.0519L272.707 38.7599Z" fill="#0F0F0F"/>
</svg>
