<svg width="392" height="86" viewBox="0 0 392 86" fill="none" xmlns="http://www.w3.org/2000/svg">
<rect x="280.5" y="0.263916" width="85" height="85" rx="42.5" fill="#FFECB3"/>
<path d="M30.64 42.3639C30.28 43.1772 30.0067 43.8839 29.82 44.4839C29.6467 45.0706 29.56 45.6706 29.56 46.2839C29.56 47.3906 29.9 48.2172 30.58 48.7639C31.2733 49.3106 32.28 49.5839 33.6 49.5839C34.68 49.5839 35.6467 49.3906 36.5 49.0039C37.3533 48.6306 37.9667 48.1572 38.34 47.5839C38.3533 47.5439 37.9333 47.4172 37.08 47.2039L36.02 46.9039C34.9667 46.5972 34.22 46.2306 33.78 45.8039C33.34 45.3772 33.12 44.7772 33.12 44.0039C33.12 42.9239 33.3933 41.8906 33.94 40.9039C34.4867 39.9172 35.2067 39.1172 36.1 38.5039C36.9933 37.8906 37.94 37.5839 38.94 37.5839C39.34 37.5839 39.7467 37.6439 40.16 37.7639C40.5733 37.8706 40.86 38.0039 41.02 38.1639L40.18 40.7439C40.0467 40.6906 39.8533 40.6439 39.6 40.6039C39.3467 40.5639 39.12 40.5439 38.92 40.5439C38.3733 40.5439 37.8467 40.6639 37.34 40.9039C36.8467 41.1306 36.4267 41.4372 36.08 41.8239C35.7333 42.1972 35.5 42.6039 35.38 43.0439C35.3667 43.0972 35.36 43.1639 35.36 43.2439C35.36 43.4706 35.5133 43.6706 35.82 43.8439C36.14 44.0039 36.7333 44.1839 37.6 44.3839C38.8133 44.6639 39.6333 45.0172 40.06 45.4439C40.5 45.8572 40.72 46.3439 40.72 46.9039C40.72 47.8772 40.4067 48.7972 39.78 49.6639C39.1533 50.5306 38.2933 51.2239 37.2 51.7439C36.12 52.2772 34.92 52.5439 33.6 52.5439C32.3333 52.5439 31.2133 52.2972 30.24 51.8039C29.2667 51.3106 28.5133 50.5772 27.98 49.6039C27.46 48.6439 27.2467 47.4906 27.34 46.1439C27.42 44.8639 27.8733 43.3106 28.7 41.4839L30.64 42.3639ZM41.6562 51.0839C42.5362 50.7239 43.3429 50.3039 44.0763 49.8239C44.8096 49.3572 45.3829 48.8906 45.7963 48.4239C46.2229 47.9572 46.4363 47.5572 46.4363 47.2239C46.4363 46.6772 46.0829 45.1906 45.3763 42.7639L45.2763 42.3639L47.5163 41.4839C47.8363 42.4039 48.0896 43.3906 48.2763 44.4439C48.4629 45.4839 48.5563 46.4106 48.5563 47.2239C48.5563 48.5306 48.0429 49.7372 47.0163 50.8439C45.9896 51.9639 44.6096 52.8839 42.8763 53.6039L41.6562 51.0839ZM50.6511 47.6439C50.7844 46.7639 50.8511 45.4039 50.8511 43.5639C50.8511 41.7239 50.7911 39.7972 50.6711 37.7839C50.5644 35.7572 50.4378 34.3372 50.2911 33.5239L52.7911 32.9439C52.9111 33.7172 53.0178 35.0706 53.1111 37.0039C53.2044 38.9372 53.2511 40.8372 53.2511 42.7039C53.2511 45.0106 53.1711 46.7439 53.0111 47.9039L50.6511 47.6439ZM61.1325 36.9239L63.8725 43.4039C64.0858 43.9372 64.3325 44.3039 64.6125 44.5039C64.8925 44.6906 65.2925 44.7839 65.8125 44.7839H66.0525L66.2125 46.2839L66.0525 47.7639H65.8125C64.9058 47.7639 64.1458 47.5106 63.5325 47.0039C62.9325 46.4972 62.3992 45.6972 61.9325 44.6039L59.0725 38.0439L61.1325 36.9239ZM55.8725 44.1639C56.2992 44.3906 56.7658 44.5972 57.2725 44.7839C57.7792 44.9572 58.3792 45.0439 59.0725 45.0439C59.9392 45.0439 60.6392 44.9172 61.1725 44.6639C61.7058 44.3972 62.1192 44.1172 62.4125 43.8239L63.7525 45.5639C63.4458 45.9506 63.1458 46.2906 62.8525 46.5839C62.5725 46.8639 62.1325 47.1506 61.5325 47.4439C60.9325 47.7239 60.2125 47.8639 59.3725 47.8639C57.7458 47.8639 56.2192 47.3306 54.7925 46.2639L55.8725 44.1639ZM58.4125 33.7239L60.2725 31.8839L62.1125 33.7239L61.4925 34.3439C61.0925 34.7572 60.6858 35.1639 60.2725 35.5639L58.4125 33.7239ZM65.8531 44.7839H66.5331C67.6665 44.7839 68.5998 44.6972 69.3331 44.5239C70.0665 44.3506 70.5598 44.1172 70.8131 43.8239C70.6265 42.5839 69.2398 40.9439 66.6531 38.9039L66.9131 36.3039L74.3531 33.1639L75.1531 35.5439L69.3731 38.0039C70.2265 38.7372 71.0465 39.6306 71.8331 40.6839C72.6198 41.7372 73.0131 42.7839 73.0131 43.8239C73.0131 44.0506 72.9798 44.2972 72.9131 44.5639C72.6465 45.6439 71.9465 46.4506 70.8131 46.9839C69.6798 47.5039 68.2531 47.7639 66.5331 47.7639H65.8531V44.7839ZM67.1331 33.8839L73.6331 31.2239L73.9731 32.1839L67.0131 35.1039L67.1331 33.8839ZM86.3689 36.8439C86.6756 39.6972 86.8889 41.5772 87.0089 42.4839C87.0889 43.1506 87.1822 43.6439 87.2889 43.9639C87.4089 44.2839 87.5756 44.5039 87.7889 44.6239C88.0156 44.7306 88.3422 44.7839 88.7689 44.7839H89.1089L89.2689 46.2839L89.1089 47.7639H88.7689C87.5822 47.7639 86.6689 47.3906 86.0289 46.6439C85.4022 45.8839 84.9822 44.6306 84.7689 42.8839L84.6289 41.8239L84.0489 37.3439L86.3689 36.8439ZM86.0689 46.3839C85.2156 46.6639 84.3822 46.8039 83.5689 46.8039C82.3689 46.8039 81.3822 46.5172 80.6089 45.9439C79.8489 45.3572 79.4689 44.5639 79.4689 43.5639C79.4689 42.3372 79.9489 41.3039 80.9089 40.4639C81.8822 39.6239 83.1689 38.9106 84.7689 38.3239L85.3289 40.9239C84.4356 41.1372 83.6089 41.4506 82.8489 41.8639C82.1022 42.2639 81.7089 42.6439 81.6689 43.0039C81.6422 43.2972 81.7889 43.5439 82.1089 43.7439C82.4289 43.9306 82.8689 44.0239 83.4289 44.0239C84.0822 44.0239 84.7689 43.8772 85.4889 43.5839L86.0689 46.3839ZM88.8805 44.7839H89.8405C91.1605 44.7839 92.0938 44.6706 92.6405 44.4439C93.1871 44.2172 93.4605 43.8706 93.4605 43.4039C93.4471 43.1106 93.2938 42.5506 93.0005 41.7239C92.7071 40.8839 92.4938 40.3239 92.3605 40.0439L94.4805 38.8839C94.7471 39.4439 95.0138 40.1906 95.2805 41.1239C95.5471 42.0439 95.6805 42.8506 95.6805 43.5439C95.6671 44.9039 95.2071 45.9506 94.3005 46.6839C93.3938 47.4039 92.0538 47.7639 90.2805 47.7639H88.8805V44.7839ZM89.1005 49.4639L90.7605 51.1439C90.4005 51.5172 90.0338 51.8839 89.6605 52.2439L89.1005 52.8039L88.2805 51.9639L87.4405 51.1439L89.1005 49.4639ZM92.6005 49.4639L94.2605 51.1439C93.9005 51.5172 93.5338 51.8839 93.1605 52.2439L92.6005 52.8039L91.7805 51.9639L90.9405 51.1439L92.6005 49.4639ZM99.9 32.9639C100.033 33.9372 100.14 35.2572 100.22 36.9239C100.3 38.5772 100.34 40.1106 100.34 41.5239V42.2839C100.327 42.9639 100.36 43.4772 100.44 43.8239C100.52 44.1706 100.68 44.4172 100.92 44.5639C101.173 44.7106 101.56 44.7839 102.08 44.7839H102.18L102.34 46.2839L102.18 47.7639H102.08C100.613 47.7639 99.5533 47.3439 98.9 46.5039C98.26 45.6639 97.94 44.3839 97.94 42.6639C97.9267 41.0239 97.8733 39.3639 97.78 37.6839C97.7 35.9906 97.58 34.5972 97.42 33.5039L99.9 32.9639ZM106.046 43.3239C106.873 43.8839 107.619 44.3306 108.286 44.6639C108.966 44.9839 109.473 45.1439 109.806 45.1439C109.926 45.1439 110.013 45.1239 110.066 45.0839C110.199 44.9906 110.299 44.8572 110.366 44.6839C110.446 44.4972 110.486 44.2839 110.486 44.0439C110.486 43.5106 110.339 43.0172 110.046 42.5639C109.753 42.0972 109.366 41.8639 108.886 41.8639C108.139 41.8639 107.306 42.9239 106.386 45.0439C105.986 45.9506 105.439 46.6306 104.746 47.0839C104.053 47.5372 103.259 47.7639 102.366 47.7639H101.986L102.046 44.7839H102.406C103.446 44.7839 104.299 44.1572 104.966 42.9039C105.633 41.6639 106.273 40.7372 106.886 40.1239C107.499 39.4972 108.186 39.1839 108.946 39.1839C109.666 39.1839 110.299 39.4172 110.846 39.8839C111.393 40.3372 111.806 40.9306 112.086 41.6639C112.379 42.3839 112.526 43.1439 112.526 43.9439C112.526 44.7172 112.379 45.4372 112.086 46.1039C111.793 46.7572 111.366 47.2506 110.806 47.5839C110.513 47.7706 110.153 47.8639 109.726 47.8639C108.553 47.8639 106.953 47.1706 104.926 45.7839L106.046 43.3239ZM119.619 47.7639C118.712 47.7639 117.979 47.4306 117.419 46.7639C116.859 46.0972 116.392 45.1639 116.019 43.9639L117.819 42.8639C118.005 43.5706 118.232 44.0706 118.499 44.3639C118.765 44.6439 119.139 44.7839 119.619 44.7839H119.799L119.959 46.2839L119.799 47.7639H119.619ZM111.559 51.0839C112.439 50.7239 113.245 50.3039 113.979 49.8239C114.712 49.3572 115.285 48.8906 115.699 48.4239C116.125 47.9572 116.339 47.5572 116.339 47.2239C116.339 46.6772 115.985 45.1906 115.279 42.7639L115.179 42.3639L117.419 41.4839C117.739 42.4039 117.992 43.3906 118.179 44.4439C118.365 45.4839 118.459 46.4106 118.459 47.2239C118.459 48.5306 117.945 49.7372 116.919 50.8439C115.892 51.9639 114.512 52.8839 112.779 53.6039L111.559 51.0839ZM130.823 44.7839C131.209 44.7839 131.516 44.6706 131.743 44.4439C131.969 44.2172 132.083 43.9239 132.083 43.5639C132.083 43.2039 131.943 42.6306 131.663 41.8439C131.396 41.0572 131.169 40.4572 130.983 40.0439L133.023 38.9239C133.276 39.4439 133.543 40.1906 133.823 41.1639C134.103 42.1239 134.243 42.9639 134.243 43.6839C134.243 44.4306 134.096 45.1172 133.803 45.7439C133.509 46.3572 133.103 46.8506 132.583 47.2239C132.063 47.5839 131.476 47.7639 130.823 47.7639H130.763V44.7839H130.823ZM125.403 47.7639V44.7839H125.503C126.183 44.7839 126.709 44.4172 127.083 43.6839C127.336 43.1772 127.563 42.3972 127.763 41.3439L129.823 41.4439C129.676 42.3239 129.603 42.9506 129.603 43.3239C129.603 44.2972 130.009 44.7839 130.823 44.7839H130.863L131.023 46.2839L130.863 47.7639H130.823C130.103 47.7639 129.496 47.5706 129.003 47.1839C128.509 46.7972 128.163 46.2506 127.963 45.5439L128.463 45.5039C127.649 47.0106 126.643 47.7639 125.443 47.7639H125.403ZM119.683 47.7639L119.523 46.2839L119.683 44.7839H119.783C120.196 44.7839 120.603 44.6972 121.003 44.5239C121.403 44.3372 121.703 44.1106 121.903 43.8439C122.183 43.5239 122.396 43.1639 122.543 42.7639C122.689 42.3639 122.823 41.9372 122.943 41.4839L125.023 41.7039C125.009 41.7706 124.936 42.0372 124.803 42.5039C124.669 42.9572 124.603 43.3706 124.603 43.7439C124.603 44.4372 124.883 44.7839 125.443 44.7839H125.483L125.643 46.2839L125.483 47.7639H125.383C124.809 47.7639 124.309 47.6106 123.883 47.3039C123.456 46.9972 123.156 46.5906 122.983 46.0839C122.556 46.6306 122.063 47.0506 121.503 47.3439C120.956 47.6239 120.369 47.7639 119.743 47.7639H119.683ZM143.609 42.4839C143.263 43.2839 142.996 43.9906 142.809 44.6039C142.623 45.2039 142.529 45.8172 142.529 46.4439C142.529 47.5372 142.876 48.3506 143.569 48.8839C144.263 49.4306 145.263 49.7039 146.569 49.7039C147.503 49.7039 148.316 49.5372 149.009 49.2039C149.716 48.8839 150.249 48.4572 150.609 47.9239C150.983 47.4039 151.169 46.8506 151.169 46.2639C151.169 45.5039 150.743 43.9039 149.889 41.4639L152.029 40.3439C152.869 42.5972 153.289 44.5706 153.289 46.2639C153.289 47.4239 153.009 48.4906 152.449 49.4639C151.889 50.4372 151.096 51.2106 150.069 51.7839C149.056 52.3706 147.889 52.6639 146.569 52.6639C145.329 52.6639 144.236 52.4239 143.289 51.9439C142.343 51.4772 141.603 50.8039 141.069 49.9239C140.549 49.0439 140.289 48.0106 140.289 46.8239C140.289 46.5839 140.296 46.3972 140.309 46.2639C140.349 45.5039 140.503 44.7106 140.769 43.8839C141.049 43.0572 141.356 42.2972 141.689 41.6039L143.609 42.4839ZM145.109 40.3839L146.969 38.5439L148.809 40.3839L148.189 41.0039C147.789 41.4172 147.383 41.8239 146.969 42.2239L145.109 40.3839ZM157.263 32.9639C157.397 33.9372 157.503 35.2572 157.583 36.9239C157.663 38.5772 157.703 40.1106 157.703 41.5239V42.2839C157.69 42.9639 157.723 43.4772 157.803 43.8239C157.883 44.1706 158.043 44.4172 158.283 44.5639C158.537 44.7106 158.923 44.7839 159.443 44.7839H159.543L159.703 46.2839L159.543 47.7639H159.443C157.977 47.7639 156.917 47.3439 156.263 46.5039C155.623 45.6639 155.303 44.3839 155.303 42.6639C155.29 41.0239 155.237 39.3639 155.143 37.6839C155.063 35.9906 154.943 34.5972 154.783 33.5039L157.263 32.9639ZM163.409 43.3239C164.236 43.8839 164.983 44.3306 165.649 44.6639C166.329 44.9839 166.836 45.1439 167.169 45.1439C167.289 45.1439 167.376 45.1239 167.429 45.0839C167.563 44.9906 167.663 44.8572 167.729 44.6839C167.809 44.4972 167.849 44.2839 167.849 44.0439C167.849 43.5106 167.703 43.0172 167.409 42.5639C167.116 42.0972 166.729 41.8639 166.249 41.8639C165.503 41.8639 164.669 42.9239 163.749 45.0439C163.349 45.9506 162.803 46.6306 162.109 47.0839C161.416 47.5372 160.623 47.7639 159.729 47.7639H159.349L159.409 44.7839H159.769C160.809 44.7839 161.663 44.1572 162.329 42.9039C162.996 41.6639 163.636 40.7372 164.249 40.1239C164.863 39.4972 165.549 39.1839 166.309 39.1839C167.029 39.1839 167.663 39.4172 168.209 39.8839C168.756 40.3372 169.169 40.9306 169.449 41.6639C169.743 42.3839 169.889 43.1439 169.889 43.9439C169.889 44.7172 169.743 45.4372 169.449 46.1039C169.156 46.7572 168.729 47.2506 168.169 47.5839C167.876 47.7706 167.516 47.8639 167.089 47.8639C165.916 47.8639 164.316 47.1706 162.289 45.7839L163.409 43.3239ZM171.34 51.0239C173.62 50.5306 175.273 49.9372 176.3 49.2439C177.326 48.5506 177.84 47.6572 177.84 46.5639C177.84 45.7772 177.726 45.0106 177.5 44.2639C177.286 43.5039 176.986 42.8839 176.6 42.4039C176.226 41.9239 175.806 41.6839 175.34 41.6839C175.073 41.6839 174.82 41.7839 174.58 41.9839C174.353 42.1706 174.173 42.4106 174.04 42.7039C173.906 42.9972 173.84 43.2772 173.84 43.5439C173.84 43.7706 173.886 43.9506 173.98 44.0839C174.193 44.3772 174.68 44.5706 175.44 44.6639C176.213 44.7439 177.273 44.7839 178.62 44.7839H180.6L180.76 46.2839L180.6 47.7639L178.06 47.7839C176.446 47.7839 175.153 47.6506 174.18 47.3839C173.206 47.1172 172.526 46.5772 172.14 45.7639C171.9 45.2439 171.78 44.6706 171.78 44.0439C171.78 43.2572 171.946 42.4772 172.28 41.7039C172.613 40.9172 173.073 40.2772 173.66 39.7839C174.246 39.2772 174.886 39.0239 175.58 39.0239C176.38 39.0239 177.106 39.3706 177.76 40.0639C178.413 40.7572 178.926 41.6639 179.3 42.7839C179.673 43.9039 179.86 45.0706 179.86 46.2839C179.86 48.1506 179.186 49.7239 177.84 51.0039C176.493 52.2839 174.633 53.1506 172.26 53.6039L171.34 51.0239ZM180.345 44.7839H181.305C182.625 44.7839 183.559 44.6706 184.105 44.4439C184.652 44.2172 184.925 43.8706 184.925 43.4039C184.912 43.1106 184.759 42.5506 184.465 41.7239C184.172 40.8839 183.959 40.3239 183.825 40.0439L185.945 38.8839C186.212 39.4439 186.479 40.1906 186.745 41.1239C187.012 42.0439 187.145 42.8506 187.145 43.5439C187.132 44.9039 186.672 45.9506 185.765 46.6839C184.859 47.4039 183.519 47.7639 181.745 47.7639H180.345V44.7839ZM182.205 34.7639L183.865 36.4439C183.505 36.8172 183.139 37.1839 182.765 37.5439L182.205 38.1039L181.385 37.2639L180.545 36.4439L182.205 34.7639ZM185.705 34.7639L187.365 36.4439C187.005 36.8172 186.639 37.1839 186.265 37.5439L185.705 38.1039L184.885 37.2639L184.045 36.4439L185.705 34.7639ZM193.998 44.1639C194.478 44.4039 194.971 44.6106 195.478 44.7839C195.984 44.9572 196.604 45.0439 197.338 45.0439C198.058 45.0306 198.644 44.9506 199.098 44.8039C199.564 44.6439 199.871 44.4706 200.018 44.2839C200.031 44.2572 200.038 44.2039 200.038 44.1239C200.038 43.8439 199.911 43.4772 199.658 43.0239C199.418 42.5572 198.984 42.0106 198.358 41.3839C197.744 40.7439 196.918 40.0706 195.878 39.3639L197.318 36.7439C198.864 37.8372 200.084 39.0306 200.978 40.3239C201.884 41.6172 202.338 42.8506 202.338 44.0239C202.338 44.5839 202.231 45.0972 202.018 45.5639C201.698 46.3106 201.131 46.8839 200.318 47.2839C199.504 47.6706 198.604 47.8639 197.618 47.8639C196.458 47.8639 195.491 47.6906 194.718 47.3439C193.944 46.9839 193.344 46.6239 192.918 46.2639L193.998 44.1639ZM201.266 51.0839C202.146 50.7239 202.952 50.3039 203.686 49.8239C204.419 49.3572 204.992 48.8906 205.406 48.4239C205.832 47.9572 206.046 47.5572 206.046 47.2239C206.046 46.6772 205.692 45.1906 204.986 42.7639L204.886 42.3639L207.126 41.4839C207.446 42.4039 207.699 43.3906 207.886 44.4439C208.072 45.4839 208.166 46.4106 208.166 47.2239C208.166 48.5306 207.652 49.7372 206.626 50.8439C205.599 51.9639 204.219 52.8839 202.486 53.6039L201.266 51.0839ZM212.38 32.9639C212.514 33.9372 212.62 35.2572 212.7 36.9239C212.78 38.5772 212.82 40.1106 212.82 41.5239V42.2839C212.807 42.9639 212.84 43.4772 212.92 43.8239C213 44.1706 213.16 44.4172 213.4 44.5639C213.654 44.7106 214.04 44.7839 214.56 44.7839H214.66L214.82 46.2839L214.66 47.7639H214.56C213.094 47.7639 212.034 47.3439 211.38 46.5039C210.74 45.6639 210.42 44.3839 210.42 42.6639C210.407 41.0239 210.354 39.3639 210.26 37.6839C210.18 35.9906 210.06 34.5972 209.9 33.5039L212.38 32.9639ZM214.466 44.7839H214.606C215.806 44.7839 216.7 44.7239 217.286 44.6039C217.873 44.4706 218.26 44.2772 218.446 44.0239C218.633 43.7706 218.726 43.4039 218.726 42.9239C218.726 42.5372 218.66 41.9039 218.526 41.0239L220.586 40.6239C220.773 41.5972 220.866 42.6972 220.866 43.9239C220.92 44.1506 221.066 44.3506 221.306 44.5239C221.546 44.6972 221.893 44.7839 222.346 44.7839H222.466L222.626 46.2839L222.466 47.7639H222.346C221.733 47.7639 221.166 47.5972 220.646 47.2639C220.126 46.9172 219.72 46.4839 219.426 45.9639L219.926 46.0639C219.566 46.6772 218.98 47.1172 218.166 47.3839C217.366 47.6372 216.18 47.7639 214.606 47.7639H214.466V44.7839ZM214.466 49.4439L216.126 51.1239C215.766 51.4972 215.4 51.8639 215.026 52.2239L214.466 52.7839L213.646 51.9439L212.806 51.1239L214.466 49.4439ZM217.966 49.4439L219.626 51.1239C219.266 51.4972 218.9 51.8639 218.526 52.2239L217.966 52.7839L217.146 51.9439L216.306 51.1239L217.966 49.4439ZM228.499 44.7839L228.659 46.2839L228.499 47.7639H228.299C227.646 47.7639 227.033 47.5572 226.459 47.1439C225.899 46.7306 225.446 46.1706 225.099 45.4639C224.753 44.7572 224.579 43.9772 224.579 43.1239C224.539 42.1772 224.459 40.5839 224.339 38.3439C224.219 36.1039 224.113 34.5039 224.019 33.5439L226.519 32.9839C226.626 34.0639 226.739 36.5106 226.859 40.3239L226.979 43.1439C227.006 43.7306 227.126 44.1506 227.339 44.4039C227.566 44.6572 227.886 44.7839 228.299 44.7839H228.499ZM222.259 44.7839H222.679C223.359 44.7839 223.846 44.6639 224.139 44.4239C224.446 44.1706 224.593 43.7372 224.579 43.1239L226.359 43.3439C226.359 44.6372 226.039 45.6972 225.399 46.5239C224.759 47.3506 223.873 47.7639 222.739 47.7639H222.259V44.7839ZM228.295 44.7839H228.435C229.635 44.7839 230.528 44.7239 231.115 44.6039C231.701 44.4706 232.088 44.2772 232.275 44.0239C232.461 43.7706 232.555 43.4039 232.555 42.9239C232.555 42.5372 232.488 41.9039 232.355 41.0239L234.415 40.6239C234.601 41.5972 234.695 42.6972 234.695 43.9239C234.748 44.1506 234.895 44.3506 235.135 44.5239C235.375 44.6972 235.721 44.7839 236.175 44.7839H236.295L236.455 46.2839L236.295 47.7639H236.175C235.561 47.7639 234.995 47.5972 234.475 47.2639C233.955 46.9172 233.548 46.4839 233.255 45.9639L233.755 46.0639C233.395 46.6772 232.808 47.1172 231.995 47.3839C231.195 47.6372 230.008 47.7639 228.435 47.7639H228.295V44.7839ZM228.295 49.4439L229.955 51.1239C229.595 51.4972 229.228 51.8639 228.855 52.2239L228.295 52.7839L227.475 51.9439L226.635 51.1239L228.295 49.4439ZM231.795 49.4439L233.455 51.1239C233.095 51.4972 232.728 51.8639 232.355 52.2239L231.795 52.7839L230.975 51.9439L230.135 51.1239L231.795 49.4439ZM240.148 43.3239C240.974 43.8839 241.721 44.3306 242.388 44.6639C243.068 44.9839 243.574 45.1439 243.908 45.1439C244.028 45.1439 244.114 45.1239 244.168 45.0839C244.301 44.9906 244.401 44.8572 244.468 44.6839C244.548 44.4972 244.588 44.2839 244.588 44.0439C244.588 43.5106 244.441 43.0172 244.148 42.5639C243.854 42.0972 243.468 41.8639 242.988 41.8639C242.241 41.8639 241.408 42.9239 240.488 45.0439C240.088 45.9506 239.541 46.6306 238.848 47.0839C238.154 47.5372 237.361 47.7639 236.468 47.7639H236.087L236.147 44.7839H236.508C237.548 44.7839 238.401 44.1572 239.068 42.9039C239.734 41.6639 240.374 40.7372 240.988 40.1239C241.601 39.4972 242.288 39.1839 243.048 39.1839C243.768 39.1839 244.401 39.4172 244.948 39.8839C245.494 40.3372 245.908 40.9306 246.188 41.6639C246.481 42.3839 246.628 43.1439 246.628 43.9439C246.628 44.7172 246.481 45.4372 246.188 46.1039C245.894 46.7572 245.468 47.2506 244.908 47.5839C244.614 47.7706 244.254 47.8639 243.828 47.8639C242.654 47.8639 241.054 47.1706 239.028 45.7839L240.148 43.3239Z" fill="#0F0F0F"/>
<path d="M278.02 36.8239H286.468V41.0479H278.02V50.6399H273.488V41.0479H265.04V36.8239H273.488V27.8479H278.02V36.8239ZM294.809 53.7639C294.838 53.1772 294.853 52.2532 294.853 50.9919C294.853 45.9759 294.604 41.5172 294.105 37.6159C293.46 32.8639 292.36 28.7132 290.805 25.1639L294.941 22.7439C296.554 26.1466 297.713 30.8986 298.417 36.9999C298.828 40.6959 299.033 45.2426 299.033 50.6399L298.989 53.7639H294.809ZM310.579 53.7639C310.608 53.1772 310.623 52.2532 310.623 50.9919C310.623 45.9759 310.373 41.5172 309.875 37.6159C309.229 32.8639 308.129 28.7132 306.575 25.1639L310.711 22.7439C312.324 26.1466 313.483 30.8986 314.187 36.9999C314.597 40.6959 314.803 45.2426 314.803 50.6399L314.759 53.7639H310.579Z" fill="#0F0F0F"/>
</svg>
