<svg width="264" height="52" viewBox="0 0 264 52" fill="none" xmlns="http://www.w3.org/2000/svg">
<g clip-path="url(#clip0_2661_33652)">
<rect x="212.8" y="0.400024" width="51.2" height="51.2" rx="25.6" fill="#FFECB3"/>
<path d="M118.06 20.288C118.204 21.524 118.324 24.524 118.42 27.824C118.48 30.488 117.136 32.084 114.736 32.084C112.768 32.084 111.148 30.788 111.304 28.676C111.376 27.74 111.76 26.648 112.108 25.928L113.152 26.42C112.804 27.176 112.528 27.908 112.504 28.664C112.48 29.768 113.356 30.536 114.736 30.536C116.416 30.536 117.28 29.684 117.22 27.884C117.112 24.644 116.908 21.848 116.752 20.588L118.06 20.288ZM120.865 20.288C121.045 21.512 121.129 24.38 121.117 25.832C121.093 27.056 121.213 27.452 122.233 27.452H122.293L122.365 28.22L122.293 29H122.233C120.433 29 119.833 27.992 119.845 26.012C119.833 24.344 119.749 21.86 119.557 20.588L120.865 20.288ZM122.178 29V27.452H122.478C123.174 27.452 123.786 27.392 124.302 27.272C123.834 26.828 123.354 26.264 122.826 25.592L122.874 24.572C124.446 23.012 128.01 23.252 128.454 24.848C128.634 25.556 128.118 26.48 127.17 27.284C127.614 27.392 128.118 27.452 128.682 27.452H129.018L129.102 28.22L129.018 29H128.682C127.422 29 126.474 28.784 125.598 28.28C124.674 28.712 123.606 29 122.478 29H122.178ZM124.254 25.304C124.794 25.916 125.298 26.384 125.85 26.72C126.738 26.24 127.146 25.64 127.278 25.316C126.978 24.74 125.178 24.632 124.254 25.304ZM128.892 29V27.452H129.06C130.92 27.452 132.12 27.272 132.672 26.72C131.4 26.84 130.164 26.528 129.696 25.616C129 24.212 130.044 21.92 131.628 21.92C133.128 21.92 134.112 24.008 134.004 25.964C133.92 27.848 132.36 29 129.06 29H128.892ZM130.416 20.084C130.752 19.736 131.088 19.388 131.436 19.052C131.772 19.388 132.12 19.736 132.456 20.084C132.12 20.42 131.772 20.756 131.436 21.104L130.416 20.084ZM130.668 24.752C130.956 25.172 131.94 25.388 132.912 25.28C132.744 24.32 132.288 23.396 131.628 23.3C130.884 23.192 130.332 24.272 130.668 24.752ZM139.675 24.812C139.531 25.244 139.315 25.952 139.363 26.432C139.483 27.092 140.611 27.572 142.783 27.584C145.819 27.572 146.743 26.972 147.319 25.364L148.447 25.496C148.003 26.84 148.219 27.452 149.107 27.452L149.191 28.22L149.095 29C148.195 29 147.439 28.436 147.295 27.548C146.323 28.736 144.871 29.12 142.831 29.132C139.987 29.156 138.319 28.256 138.175 26.708C138.103 25.928 138.355 24.944 138.631 24.296L139.675 24.812ZM141.151 24.284C141.463 23.984 141.775 23.672 142.087 23.36C142.399 23.672 142.711 23.984 143.023 24.284C142.711 24.608 142.399 24.92 142.087 25.232C141.775 24.92 141.463 24.608 141.151 24.284ZM143.263 24.284C143.575 23.984 143.887 23.672 144.199 23.36C144.511 23.672 144.823 23.984 145.135 24.284C144.823 24.608 144.511 24.92 144.199 25.232C143.887 24.92 143.575 24.608 143.263 24.284ZM154.09 20.18L154.522 21.428L150.958 22.964C151.798 23.684 153.622 25.652 153.166 27.2C152.818 28.448 151.342 29 149.362 29H148.99V27.452H149.362C150.838 27.452 151.75 27.188 152.026 26.768C152.038 26.012 151.234 24.848 149.518 23.444L149.662 22.076L154.09 20.18ZM157.797 29C157.521 29 157.281 28.94 157.065 28.844C157.029 30.368 155.625 31.724 153.705 32.48L153.081 31.172C154.677 30.548 155.901 29.468 155.901 28.772C155.901 28.28 155.385 26.42 155.241 25.832L156.441 25.364C156.549 25.712 156.657 26.096 156.753 26.468C156.969 27.188 157.257 27.452 157.797 27.452H157.893L157.977 28.22L157.893 29H157.797ZM164.487 27.452C165.015 27.452 165.291 27.128 165.291 26.636C165.291 26.084 164.775 24.776 164.643 24.464L165.747 23.852C165.975 24.344 166.479 25.712 166.479 26.672C166.479 27.956 165.675 28.976 164.523 29H164.487H164.463C163.695 28.988 163.155 28.592 162.903 27.908C162.507 28.556 161.955 29 161.283 29H161.235C160.527 29 159.987 28.58 159.831 27.92C159.315 28.628 158.631 29 157.851 29H157.815L157.731 28.22L157.815 27.452H157.863C158.403 27.452 158.943 27.176 159.195 26.828C159.579 26.348 159.747 25.652 159.819 25.364L160.947 25.484C160.875 25.796 160.731 26.312 160.707 26.708C160.683 27.2 160.851 27.452 161.259 27.452H161.283C161.739 27.452 162.063 27.176 162.303 26.732C162.555 26.252 162.663 25.568 162.711 25.28L163.839 25.328C163.791 25.568 163.695 26.12 163.695 26.492C163.695 27.092 163.923 27.452 164.487 27.452ZM161.223 22.652C161.535 22.352 161.823 22.052 162.135 21.74C162.435 22.052 162.735 22.352 163.047 22.652C162.735 22.964 162.435 23.252 162.135 23.564L161.223 22.652ZM162.447 21.272L163.251 20.456C163.515 20.72 163.791 20.996 164.055 21.272C163.791 21.536 163.515 21.8 163.251 22.076C162.987 21.8 162.723 21.536 162.447 21.272ZM163.479 22.652C163.791 22.352 164.079 22.052 164.391 21.74C164.691 22.052 164.991 22.352 165.303 22.652C164.991 22.964 164.691 23.252 164.391 23.564L163.479 22.652Z" fill="#0F0F0F"/>
<path d="M181.686 20.398V24.142H185.25V25.672H181.686V29.722H180.048V25.672H176.484V24.142H180.048V20.398H181.686ZM188.857 31C188.893 28.93 188.785 26.284 188.551 24.43C188.263 22.162 187.777 20.668 187.201 19.354L188.731 18.472C189.451 19.984 189.883 22.108 190.117 24.232C190.333 26.176 190.405 28.894 190.369 31H188.857ZM195.396 31C195.432 28.93 195.324 26.284 195.09 24.43C194.802 22.162 194.316 20.668 193.74 19.354L195.27 18.472C195.99 19.984 196.422 22.108 196.656 24.232C196.872 26.176 196.944 28.894 196.908 31H195.396ZM201.809 31C201.845 28.93 201.737 26.284 201.503 24.43C201.215 22.162 200.729 20.668 200.153 19.354L201.683 18.472C201.899 18.922 202.079 19.408 202.241 19.948C202.781 21.37 203.303 22.432 204.797 22.378C206.561 22.306 206.831 20.758 206.597 18.724L207.947 18.472C208.469 21.478 207.425 24.052 204.797 24.088C204.059 24.106 203.483 23.926 202.997 23.602L203.069 24.232C203.285 26.176 203.357 28.894 203.321 31H201.809ZM208.87 32.908C209.428 32.134 209.716 31.36 209.734 30.55V29.074H211.318V30.352C211.318 31.522 210.67 32.836 209.788 33.556L208.87 32.908ZM212.782 30.658C213.52 28.444 214.78 26.626 216.238 25.222C214.654 24.898 213.7 23.602 213.7 22.18C213.7 20.614 214.87 18.778 217.12 18.526C218.362 18.382 219.496 18.958 219.982 19.354L219.37 20.578C218.902 20.308 218.272 20.056 217.282 20.146C215.986 20.272 215.194 21.226 215.212 22.18C215.248 23.422 216.922 24.214 219.262 22.99C219.766 22.702 220.27 22.468 220.756 22.288L221.044 23.998C218.47 24.97 215.536 27.508 214.15 31.306L212.782 30.658ZM224.523 31C224.559 28.93 224.451 26.284 224.217 24.43C223.929 22.162 223.443 20.668 222.867 19.354L224.397 18.472C225.117 19.984 225.549 22.108 225.783 24.232C225.999 26.176 226.071 28.894 226.035 31H224.523ZM232.142 30.226C230.54 30.226 229.226 28.912 229.226 27.364C229.226 25.798 230.54 24.502 232.142 24.502C233.744 24.502 235.058 25.78 235.058 27.364C235.058 28.912 233.744 30.226 232.142 30.226ZM230.738 27.364C230.738 28.21 231.35 28.804 232.142 28.804C232.934 28.804 233.528 28.21 233.528 27.364C233.528 26.518 232.934 25.924 232.142 25.924C231.35 25.924 230.738 26.518 230.738 27.364Z" fill="#0F0F0F"/>
</g>
<defs>
<clipPath id="clip0_2661_33652">
<rect width="264" height="51.2" fill="white" transform="translate(0 0.400024)"/>
</clipPath>
</defs>
</svg>
