<svg width="264" height="52" viewBox="0 0 264 52" fill="none" xmlns="http://www.w3.org/2000/svg">
<g clip-path="url(#clip0_2661_33645)">
<rect x="212.8" y="0.199951" width="51.2" height="51.2" rx="25.6" fill="#FFECB3"/>
<path d="M74.152 25.6079C73.816 26.3399 73.516 27.1199 73.492 27.9239C73.456 29.3759 74.368 30.0839 75.976 30.0839C77.464 30.0839 78.52 29.4119 78.88 28.7159C78.892 28.6559 78.424 28.5239 77.488 28.2479C76.192 27.8759 75.7 27.4799 75.76 26.3999C75.868 24.5279 77.488 22.8359 79.252 22.8839C79.696 22.8959 80.176 23.0399 80.368 23.2079L79.924 24.5639C79.768 24.5039 79.468 24.4439 79.216 24.4439C78.136 24.4079 77.164 25.2479 76.984 26.0759C76.912 26.4239 77.056 26.6159 78.304 26.9399C79.828 27.3239 80.128 27.7559 80.14 28.3439C80.176 29.9879 78.412 31.6439 75.976 31.6439C73.78 31.6439 72.148 30.2999 72.292 27.9119C72.352 26.9039 72.784 25.7759 73.108 25.1279L74.152 25.6079ZM80.8 30.9719C82.396 30.3479 83.62 29.2679 83.62 28.5719C83.62 28.0799 83.104 26.2199 82.96 25.6319L84.16 25.1639C84.52 26.2679 84.784 27.6479 84.784 28.5719C84.784 30.1319 83.368 31.5119 81.424 32.2799L80.8 30.9719ZM86.1049 28.7279C86.3329 26.9999 86.1289 21.6479 85.9129 20.3879L87.2329 20.0879C87.4129 21.3239 87.6529 26.7239 87.3649 28.8719L86.1049 28.7279ZM91.0746 23.0519L92.1906 22.4639L93.8346 26.3519C94.1226 27.0359 94.4226 27.2519 95.0826 27.2519H95.2146L95.2986 28.0199L95.2146 28.7999H95.0826C94.3626 28.7999 93.8226 28.5479 93.3666 27.9959C92.9466 28.3919 92.2506 28.8599 91.1586 28.8599C89.7786 28.8599 88.8426 28.1759 88.5066 27.9359L89.0946 26.8319C89.3826 26.9879 90.0666 27.3839 91.0266 27.3839C91.8186 27.3839 92.3826 27.1319 92.7426 26.9039L91.0746 23.0519ZM90.7026 20.6279C91.0386 20.2799 91.3746 19.9319 91.7226 19.5959C92.0586 19.9319 92.4066 20.2799 92.7426 20.6279C92.4066 20.9639 92.0586 21.2999 91.7226 21.6479L90.7026 20.6279ZM95.0955 28.7999V27.2519H95.4675C96.9195 27.2519 97.7955 27.0119 98.1075 26.6039C98.1675 25.9079 97.3275 24.7799 95.6235 23.4359L95.7675 22.0559L100.196 20.1839L100.628 21.4199L97.0635 22.9559C97.9395 23.7119 99.6555 25.4999 99.2115 26.9999C98.8515 28.2599 97.4235 28.7999 95.4675 28.7999H95.0955ZM95.8275 21.2879L95.8995 20.6279L99.7635 19.0199L99.9555 19.5479L95.8275 21.2879ZM107.718 22.4999C107.826 23.5079 107.97 24.9599 108.078 25.8239C108.222 26.9999 108.39 27.2519 109.17 27.2519H109.374L109.458 28.0199L109.374 28.7999H109.17C108.402 28.7999 107.85 28.5599 107.466 27.9959C105.39 28.6439 103.506 27.8159 103.734 26.0759C103.902 24.8159 105.126 24.0239 106.554 23.4719L106.458 22.7519L107.718 22.4999ZM104.898 26.0759C104.838 26.5919 105.726 26.9639 106.95 26.6039C106.914 26.4239 106.89 26.2319 106.866 26.0279L106.722 24.8519C105.786 25.1519 104.934 25.6439 104.898 26.0759ZM109.24 28.7999V27.2519H109.78C111.46 27.2519 112.012 26.9399 112.012 26.3399C112 25.8839 111.484 24.5159 111.364 24.2519L112.492 23.6399C112.72 24.1439 113.212 25.4759 113.212 26.3999C113.2 27.9479 112.144 28.7999 110.008 28.7999H109.24ZM108.436 30.8039C108.748 30.5039 109.06 30.1919 109.372 29.8799C109.684 30.1919 109.996 30.5039 110.308 30.8039C109.996 31.1279 109.684 31.4399 109.372 31.7519C109.06 31.4399 108.748 31.1279 108.436 30.8039ZM110.548 30.8039C110.86 30.5039 111.172 30.1919 111.484 29.8799C111.796 30.1919 112.108 30.5039 112.42 30.8039C112.108 31.1279 111.796 31.4399 111.484 31.7519C111.172 31.4399 110.86 31.1279 110.548 30.8039ZM115.662 20.0879C115.842 21.3119 115.926 24.1799 115.914 25.6319C115.89 26.8559 116.01 27.2519 117.03 27.2519H117.09L117.162 28.0199L117.09 28.7999H117.03C115.23 28.7999 114.63 27.7919 114.642 25.8119C114.63 24.1439 114.546 21.6599 114.354 20.3879L115.662 20.0879ZM116.974 28.7999L116.998 27.2519H117.226C117.826 27.2519 118.366 26.9039 118.786 26.1239C119.434 24.8639 120.13 23.9279 121.042 23.8799C123.286 23.7479 123.982 27.6719 122.206 28.7159C121.534 29.0999 120.442 28.6919 119.158 27.8879C118.666 28.4999 117.97 28.7999 117.19 28.7999H116.974ZM119.83 26.6399C120.802 27.2519 121.57 27.5399 121.798 27.3959C122.422 27.0239 122.062 25.2719 121.126 25.2719C120.766 25.2719 120.334 25.6679 119.83 26.6399ZM127.422 28.7999C127.146 28.7999 126.906 28.7399 126.69 28.6439C126.654 30.1679 125.25 31.5239 123.33 32.2799L122.706 30.9719C124.302 30.3479 125.526 29.2679 125.526 28.5719C125.526 28.0799 125.01 26.2199 124.866 25.6319L126.066 25.1639C126.174 25.5119 126.282 25.8959 126.378 26.2679C126.594 26.9879 126.882 27.2519 127.422 27.2519H127.518L127.602 28.0199L127.518 28.7999H127.422ZM134.112 27.2519C134.64 27.2519 134.916 26.9279 134.916 26.4359C134.916 25.8839 134.4 24.5759 134.268 24.2639L135.372 23.6519C135.6 24.1439 136.104 25.5119 136.104 26.4719C136.104 27.7559 135.3 28.7759 134.148 28.7999H134.112H134.088C133.32 28.7879 132.78 28.3919 132.528 27.7079C132.132 28.3559 131.58 28.7999 130.908 28.7999H130.86C130.152 28.7999 129.612 28.3799 129.456 27.7199C128.94 28.4279 128.256 28.7999 127.476 28.7999H127.44L127.356 28.0199L127.44 27.2519H127.488C128.028 27.2519 128.568 26.9759 128.82 26.6279C129.204 26.1479 129.372 25.4519 129.444 25.1639L130.572 25.2839C130.5 25.5959 130.356 26.1119 130.332 26.5079C130.308 26.9999 130.476 27.2519 130.884 27.2519H130.908C131.364 27.2519 131.688 26.9759 131.928 26.5319C132.18 26.0519 132.288 25.3679 132.336 25.0799L133.464 25.1279C133.416 25.3679 133.32 25.9199 133.32 26.2919C133.32 26.8919 133.548 27.2519 134.112 27.2519ZM142.086 25.7159C141.762 26.4479 141.462 27.2279 141.438 28.0319C141.402 29.4839 142.302 30.1919 143.91 30.1919C145.77 30.1919 146.73 29.0999 146.73 28.0319C146.73 27.2879 146.202 25.7159 145.998 25.1039L147.138 24.5159C147.618 25.8599 147.882 27.0119 147.882 28.0319C147.882 29.9759 146.37 31.7519 143.91 31.7519C141.534 31.7519 140.106 30.1919 140.226 28.0319C140.286 26.9999 140.73 25.8839 141.042 25.2359L142.086 25.7159ZM143.142 24.6119C143.478 24.2639 143.814 23.9159 144.162 23.5799C144.498 23.9159 144.846 24.2639 145.182 24.6119C144.846 24.9479 144.498 25.2839 144.162 25.6319L143.142 24.6119ZM150.174 20.0879C150.354 21.3119 150.438 24.1799 150.426 25.6319C150.402 26.8559 150.522 27.2519 151.542 27.2519H151.602L151.674 28.0199L151.602 28.7999H151.542C149.742 28.7999 149.142 27.7919 149.154 25.8119C149.142 24.1439 149.058 21.6599 148.866 20.3879L150.174 20.0879ZM151.486 28.7999L151.51 27.2519H151.738C152.338 27.2519 152.878 26.9039 153.298 26.1239C153.946 24.8639 154.642 23.9279 155.554 23.8799C157.798 23.7479 158.494 27.6719 156.718 28.7159C156.046 29.0999 154.954 28.6919 153.67 27.8879C153.178 28.4999 152.482 28.7999 151.702 28.7999H151.486ZM154.342 26.6399C155.314 27.2519 156.082 27.5399 156.31 27.3959C156.934 27.0239 156.574 25.2719 155.638 25.2719C155.278 25.2719 154.846 25.6679 154.342 26.6399ZM158.586 30.9239C160.794 30.4559 161.994 29.8079 162.342 28.8119C160.854 28.7999 159.534 28.6559 159.066 27.6719C158.394 26.2439 159.486 23.7719 161.022 23.7719C162.342 23.7719 163.278 25.4639 163.482 27.2519H163.962L164.046 28.0199L163.962 28.7999H163.458C163.086 30.5639 161.49 31.8119 159.054 32.2799L158.586 30.9239ZM160.05 26.7959C160.314 27.1559 161.262 27.2399 162.354 27.2519C162.174 26.2199 161.682 25.2959 161.01 25.1999C160.302 25.0799 159.726 26.3279 160.05 26.7959ZM163.814 28.7999V27.2519H164.354C166.034 27.2519 166.586 26.9399 166.586 26.3399C166.574 25.8839 166.058 24.5159 165.938 24.2519L167.066 23.6399C167.294 24.1439 167.786 25.4759 167.786 26.3999C167.774 27.9479 166.718 28.7999 164.582 28.7999H163.814ZM164.018 22.1279C164.33 21.8279 164.642 21.5159 164.954 21.2039C165.266 21.5159 165.578 21.8279 165.89 22.1279C165.578 22.4519 165.266 22.7639 164.954 23.0759C164.642 22.7639 164.33 22.4519 164.018 22.1279ZM166.118 22.1279C166.43 21.8279 166.742 21.5159 167.054 21.2039C167.366 21.5159 167.678 21.8279 167.99 22.1279C167.678 22.4519 167.366 22.7639 167.054 23.0759C166.742 22.7639 166.43 22.4519 166.118 22.1279ZM172.368 26.8319C172.644 26.9759 173.352 27.3719 174.42 27.3719C175.368 27.3719 175.884 27.0839 176.028 26.8679C176.172 26.4719 175.74 25.2839 173.556 23.7479L174.3 22.4039C176.52 23.9999 177.732 26.0519 177.084 27.5519C176.712 28.4159 175.644 28.8479 174.564 28.8479C173.004 28.8479 172.068 28.1759 171.78 27.9359L172.368 26.8319ZM176.706 30.9719C178.302 30.3479 179.526 29.2679 179.526 28.5719C179.526 28.0799 179.01 26.2199 178.866 25.6319L180.066 25.1639C180.426 26.2679 180.69 27.6479 180.69 28.5719C180.69 30.1319 179.274 31.5119 177.33 32.2799L176.706 30.9719ZM183.127 20.0879C183.307 21.3119 183.391 24.1799 183.379 25.6319C183.355 26.8559 183.475 27.2519 184.495 27.2519H184.555L184.627 28.0199L184.555 28.7999H184.495C182.695 28.7999 182.095 27.7919 182.107 25.8119C182.095 24.1439 182.011 21.6599 181.819 20.3879L183.127 20.0879ZM184.439 28.7999V27.2519H184.535C186.431 27.2519 186.887 26.9999 187.019 26.4359C187.103 26.0399 187.007 25.4519 186.923 24.8759L188.039 24.6599C188.195 25.4639 188.207 26.4359 188.207 26.6159C188.267 26.9519 188.555 27.2519 189.167 27.2519H189.239L189.323 28.0199L189.239 28.7999H189.167C188.495 28.7999 187.931 28.4399 187.583 27.9359C187.151 28.5599 186.287 28.7999 184.535 28.7999H184.439ZM183.575 30.7799C183.887 30.4799 184.199 30.1679 184.511 29.8559C184.823 30.1679 185.135 30.4799 185.447 30.7799C185.135 31.1039 184.823 31.4159 184.511 31.7279C184.199 31.4159 183.887 31.1039 183.575 30.7799ZM185.687 30.7799C185.999 30.4799 186.311 30.1679 186.623 29.8559C186.935 30.1679 187.247 30.4799 187.559 30.7799C187.247 31.1039 186.935 31.4159 186.623 31.7279C186.311 31.4159 185.999 31.1039 185.687 30.7799ZM192.703 27.2519H192.835L192.919 28.0199L192.835 28.7999H192.703C192.091 28.7999 191.515 28.4639 191.119 27.9119C190.759 28.4639 190.183 28.7999 189.415 28.7999H189.115V27.2519H189.403C190.219 27.2519 190.579 26.9519 190.579 26.2079V26.1479C190.591 25.8119 190.399 21.5759 190.279 20.3879L191.599 20.0999C191.719 21.2759 191.815 25.4399 191.851 26.1599C191.899 26.9399 192.211 27.2519 192.703 27.2519ZM192.713 28.7999V27.2519H192.809C194.705 27.2519 195.161 26.9999 195.293 26.4359C195.377 26.0399 195.281 25.4519 195.197 24.8759L196.313 24.6599C196.469 25.4639 196.481 26.4359 196.481 26.6159C196.541 26.9519 196.829 27.2519 197.441 27.2519H197.513L197.597 28.0199L197.513 28.7999H197.441C196.769 28.7999 196.205 28.4399 195.857 27.9359C195.425 28.5599 194.561 28.7999 192.809 28.7999H192.713ZM191.849 30.7799C192.161 30.4799 192.473 30.1679 192.785 29.8559C193.097 30.1679 193.409 30.4799 193.721 30.7799C193.409 31.1039 193.097 31.4159 192.785 31.7279C192.473 31.4159 192.161 31.1039 191.849 30.7799ZM193.961 30.7799C194.273 30.4799 194.585 30.1679 194.897 29.8559C195.209 30.1679 195.521 30.4799 195.833 30.7799C195.521 31.1039 195.209 31.4159 194.897 31.7279C194.585 31.4159 194.273 31.1039 193.961 30.7799ZM197.388 28.7999L197.412 27.2519H197.64C198.24 27.2519 198.78 26.9039 199.2 26.1239C199.848 24.8639 200.544 23.9279 201.456 23.8799C203.7 23.7479 204.396 27.6719 202.62 28.7159C201.948 29.0999 200.856 28.6919 199.572 27.8879C199.08 28.4999 198.384 28.7999 197.604 28.7999H197.388ZM200.244 26.6399C201.216 27.2519 201.984 27.5399 202.212 27.3959C202.836 27.0239 202.476 25.2719 201.54 25.2719C201.18 25.2719 200.748 25.6679 200.244 26.6399Z" fill="#0F0F0F"/>
<path d="M218.686 20.1979V23.9419H222.25V25.4719H218.686V29.5219H217.048V25.4719H213.484V23.9419H217.048V20.1979H218.686ZM225.857 30.7999C225.893 28.7299 225.785 26.0839 225.551 24.2299C225.263 21.9619 224.777 20.4679 224.201 19.1539L225.731 18.2719C226.451 19.7839 226.883 21.9079 227.117 24.0319C227.333 25.9759 227.405 28.6939 227.369 30.7999H225.857ZM232.396 30.7999C232.432 28.7299 232.324 26.0839 232.09 24.2299C231.802 21.9619 231.316 20.4679 230.74 19.1539L232.27 18.2719C232.99 19.7839 233.422 21.9079 233.656 24.0319C233.872 25.9759 233.944 28.6939 233.908 30.7999H232.396Z" fill="#0F0F0F"/>
</g>
<defs>
<clipPath id="clip0_2661_33645">
<rect width="264" height="51.2" fill="white" transform="translate(0 0.199951)"/>
</clipPath>
</defs>
</svg>
