<svg width="262" height="52" viewBox="0 0 262 52" fill="none" xmlns="http://www.w3.org/2000/svg">
<g clip-path="url(#clip0_2661_33638)">
<rect x="210.3" width="51.2" height="51.2" rx="25.6" fill="#FFECB3"/>
<path d="M129.3 30.772C130.896 30.148 132.12 29.068 132.12 28.372C132.12 27.88 131.604 26.02 131.46 25.432L132.66 24.964C133.02 26.068 133.284 27.448 133.284 28.372C133.284 29.932 131.868 31.312 129.924 32.08L129.3 30.772ZM134.605 28.528C134.833 26.8 134.629 21.448 134.413 20.188L135.733 19.888C135.913 21.124 136.153 26.524 135.865 28.672L134.605 28.528ZM139.575 22.852L140.691 22.264L142.335 26.152C142.623 26.836 142.923 27.052 143.583 27.052H143.715L143.799 27.82L143.715 28.6H143.583C142.863 28.6 142.323 28.348 141.867 27.796C141.447 28.192 140.751 28.66 139.659 28.66C138.279 28.66 137.343 27.976 137.007 27.736L137.595 26.632C137.883 26.788 138.567 27.184 139.527 27.184C140.319 27.184 140.883 26.932 141.243 26.704L139.575 22.852ZM139.203 20.428C139.539 20.08 139.875 19.732 140.223 19.396C140.559 19.732 140.907 20.08 141.243 20.428C140.907 20.764 140.559 21.1 140.223 21.448L139.203 20.428ZM143.596 28.6V27.052H143.968C145.42 27.052 146.296 26.812 146.608 26.404C146.668 25.708 145.828 24.58 144.124 23.236L144.268 21.856L148.696 19.984L149.128 21.22L145.564 22.756C146.44 23.512 148.156 25.3 147.712 26.8C147.352 28.06 145.924 28.6 143.968 28.6H143.596ZM144.328 21.088L144.4 20.428L148.264 18.82L148.456 19.348L144.328 21.088ZM156.218 22.3C156.326 23.308 156.47 24.76 156.578 25.624C156.722 26.8 156.89 27.052 157.67 27.052H157.874L157.958 27.82L157.874 28.6H157.67C156.902 28.6 156.35 28.36 155.966 27.796C153.89 28.444 152.006 27.616 152.234 25.876C152.402 24.616 153.626 23.824 155.054 23.272L154.958 22.552L156.218 22.3ZM153.398 25.876C153.338 26.392 154.226 26.764 155.45 26.404C155.414 26.224 155.39 26.032 155.366 25.828L155.222 24.652C154.286 24.952 153.434 25.444 153.398 25.876ZM157.74 28.6V27.052H158.28C159.96 27.052 160.512 26.74 160.512 26.14C160.5 25.684 159.984 24.316 159.864 24.052L160.992 23.44C161.22 23.944 161.712 25.276 161.712 26.2C161.7 27.748 160.644 28.6 158.508 28.6H157.74ZM156.936 30.604C157.248 30.304 157.56 29.992 157.872 29.68C158.184 29.992 158.496 30.304 158.808 30.604C158.496 30.928 158.184 31.24 157.872 31.552C157.56 31.24 157.248 30.928 156.936 30.604ZM159.048 30.604C159.36 30.304 159.672 29.992 159.984 29.68C160.296 29.992 160.608 30.304 160.92 30.604C160.608 30.928 160.296 31.24 159.984 31.552C159.672 31.24 159.36 30.928 159.048 30.604ZM164.162 19.888C164.342 21.112 164.426 23.98 164.414 25.432C164.39 26.656 164.51 27.052 165.53 27.052H165.59L165.662 27.82L165.59 28.6H165.53C163.73 28.6 163.13 27.592 163.142 25.612C163.13 23.944 163.046 21.46 162.854 20.188L164.162 19.888ZM165.474 28.6L165.498 27.052H165.726C166.326 27.052 166.866 26.704 167.286 25.924C167.934 24.664 168.63 23.728 169.542 23.68C171.786 23.548 172.482 27.472 170.706 28.516C170.034 28.9 168.942 28.492 167.658 27.688C167.166 28.3 166.47 28.6 165.69 28.6H165.474ZM168.33 26.44C169.302 27.052 170.07 27.34 170.298 27.196C170.922 26.824 170.562 25.072 169.626 25.072C169.266 25.072 168.834 25.468 168.33 26.44ZM175.922 28.6C175.646 28.6 175.406 28.54 175.19 28.444C175.154 29.968 173.75 31.324 171.83 32.08L171.206 30.772C172.802 30.148 174.026 29.068 174.026 28.372C174.026 27.88 173.51 26.02 173.366 25.432L174.566 24.964C174.674 25.312 174.782 25.696 174.878 26.068C175.094 26.788 175.382 27.052 175.922 27.052H176.018L176.102 27.82L176.018 28.6H175.922ZM182.612 27.052C183.14 27.052 183.416 26.728 183.416 26.236C183.416 25.684 182.9 24.376 182.768 24.064L183.872 23.452C184.1 23.944 184.604 25.312 184.604 26.272C184.604 27.556 183.8 28.576 182.648 28.6H182.612H182.588C181.82 28.588 181.28 28.192 181.028 27.508C180.632 28.156 180.08 28.6 179.408 28.6H179.36C178.652 28.6 178.112 28.18 177.956 27.52C177.44 28.228 176.756 28.6 175.976 28.6H175.94L175.856 27.82L175.94 27.052H175.988C176.528 27.052 177.068 26.776 177.32 26.428C177.704 25.948 177.872 25.252 177.944 24.964L179.072 25.084C179 25.396 178.856 25.912 178.832 26.308C178.808 26.8 178.976 27.052 179.384 27.052H179.408C179.864 27.052 180.188 26.776 180.428 26.332C180.68 25.852 180.788 25.168 180.836 24.88L181.964 24.928C181.916 25.168 181.82 25.72 181.82 26.092C181.82 26.692 182.048 27.052 182.612 27.052Z" fill="#0F0F0F"/>
<path d="M199.186 19.998V23.742H202.75V25.272H199.186V29.322H197.548V25.272H193.984V23.742H197.548V19.998H199.186ZM206.357 30.6C206.393 28.53 206.285 25.884 206.051 24.03C205.763 21.762 205.277 20.268 204.701 18.954L206.231 18.072C206.537 18.702 206.771 19.422 206.987 20.214C207.275 21.186 207.671 21.924 208.157 22.464C208.139 22.338 208.121 22.212 208.103 22.086C207.959 20.178 209.399 18.36 211.433 18.198C212.747 18.108 213.773 18.72 214.655 19.422L214.025 20.628C213.413 20.214 212.477 19.854 211.595 19.908C210.317 19.98 209.399 20.916 209.525 21.996C209.687 23.508 211.379 24.462 214.583 22.842L214.997 24.318C213.251 25.434 209.921 26.028 207.617 23.904C207.833 25.848 207.905 28.53 207.869 30.6H206.357ZM221.896 30.978C221.338 29.736 220.978 27.09 220.798 24.714C220.294 24.894 219.7 25.02 219.034 25.02C217.198 25.02 215.92 23.94 215.938 21.996C215.956 20.232 217.198 18.108 218.98 18.108C221.716 18.108 221.986 21.888 222.148 23.382C222.364 25.65 222.85 28.692 223.426 30.078L221.896 30.978ZM217.36 21.96C217.36 22.824 217.972 23.328 219.088 23.328C219.808 23.328 220.312 23.148 220.672 22.95C220.546 21.636 220.132 19.746 218.962 19.71C218.134 19.674 217.36 20.808 217.36 21.96ZM224.78 30.258C225.518 28.044 226.778 26.226 228.236 24.822C226.652 24.498 225.698 23.202 225.698 21.78C225.698 20.214 226.868 18.378 229.118 18.126C230.36 17.982 231.494 18.558 231.98 18.954L231.368 20.178C230.9 19.908 230.27 19.656 229.28 19.746C227.984 19.872 227.192 20.826 227.21 21.78C227.246 23.022 228.92 23.814 231.26 22.59C231.764 22.302 232.268 22.068 232.754 21.888L233.042 23.598C230.468 24.57 227.534 27.108 226.148 30.906L224.78 30.258Z" fill="#0F0F0F"/>
</g>
<defs>
<clipPath id="clip0_2661_33638">
<rect width="261" height="51.2" fill="white" transform="translate(0.5)"/>
</clipPath>
</defs>
</svg>
